<?xml version="1.0" encoding="UTF-8"?><svg id="Layer_2" xmlns="http://www.w3.org/2000/svg" xmlns:xlink="http://www.w3.org/1999/xlink" viewBox="0 0 162.39 36.44"><defs><style>.cls-1{fill:url(#linear-gradient-2);}.cls-2{fill:url(#linear-gradient-4);}.cls-3{fill:url(#linear-gradient-3);}.cls-4{fill:url(#linear-gradient-5);}.cls-5{fill:url(#linear-gradient-8);}.cls-6{fill:url(#linear-gradient-7);}.cls-7{fill:url(#linear-gradient-9);}.cls-8{fill:url(#linear-gradient-6);}.cls-9{fill:url(#linear-gradient);}</style><linearGradient id="linear-gradient" x1="-41.28" y1="-30.48" x2="134.86" y2="145.67" gradientUnits="userSpaceOnUse"><stop offset="0" stop-color="#fbb040"/><stop offset="1" stop-color="#ec008c"/></linearGradient><linearGradient id="linear-gradient-2" x1="-27.23" y1="-44.53" x2="148.92" y2="131.61" xlink:href="#linear-gradient"/><linearGradient id="linear-gradient-3" x1="-17.05" y1="-54.71" x2="159.1" y2="121.43" xlink:href="#linear-gradient"/><linearGradient id="linear-gradient-4" x1="-10.2" y1="-61.56" x2="165.94" y2="114.59" xlink:href="#linear-gradient"/><linearGradient id="linear-gradient-5" x1="-5.99" y1="-75.03" x2="170.15" y2="101.12" xlink:href="#linear-gradient"/><linearGradient id="linear-gradient-6" x1="2.67" y1="-83.69" x2="178.82" y2="92.45" xlink:href="#linear-gradient"/><linearGradient id="linear-gradient-7" x1="11.27" y1="-92.29" x2="187.42" y2="83.85" xlink:href="#linear-gradient"/><linearGradient id="linear-gradient-8" x1="21.05" y1="-102.08" x2="197.2" y2="74.07" xlink:href="#linear-gradient"/><linearGradient id="linear-gradient-9" x1="28.8" y1="-109.83" x2="204.95" y2="66.32" xlink:href="#linear-gradient"/></defs><g id="TEMPLATE"><g id="_03_Logo"><path class="cls-9" d="M15.74,18.81c-.48-.19-1.1-.31-1.87-.36-.25-2.39-.39-3.85-.42-4.35-.06-.84-.21-2.38-.46-4.57-.25-2.24-.46-3.7-.64-4.42-.16-.85-.49-1.57-.98-2.14-.5-.58-1.04-.96-1.62-1.12-.63-.18-1.26-.08-1.86.28-.58.34-1.03.92-1.34,1.71-.5,1.25-.98,2.72-1.45,4.34-.47,1.63-.83,3.03-1.07,4.15-.25,1.12-.55,2.57-.89,4.3-.28,1.39-.49,2.4-.64,3.02-.74.17-1.31.36-1.7.57-.38.18-.63.43-.74.75-.07.21-.11.55.11.97.34.66.97.91,1.61.67.09-.03.17-.05.24-.08-.22,1.24-.61,3.79-1.17,7.75-.03.32.05.93.96,1.35.48.22,1,.39,1.57.49,1.23.15,1.93,0,2.29-.45.21-.27.43-.79.48-2.58,0-.16.02-.56.13-1.54.09-.8.19-1.64.3-2.52.11-.88.23-1.7.35-2.48.08-.51.13-.83.17-1.03.78-.2,1.91-.35,3.36-.45.04.72.09,1.91.16,3.57.1,2.31.21,4.47.33,6.42.15,2.64.25,3.32.31,3.6.12.59.52,1.35,1.8,1.66.32.08.62.12.9.12.55,0,1.03-.15,1.41-.45.28-.18.46-.45.49-.76.03-.25-.02-.49-.13-.71-.06-.12-.14-.28-.25-.47-.07-.13-.11-.25-.13-.36-.23-1.28-.42-2.63-.56-4-.14-1.39-.29-3.11-.43-5.11l-.25-3.48c.21.04.38.08.52.13.21.07.33.1.42.11.5.08,1.09-.15,1.3-1.01.24-1.01-.33-1.39-.61-1.52ZM10.41,18.46c-.82.06-1.75.17-2.78.32.12-.73.35-2.06.78-4.42.48-2.65.92-4.94,1.3-6.81.02.52.09,1.62.21,3.26.14,1.9.27,3.69.39,5.36.09,1.25.1,1.92.1,2.28Z"/><path class="cls-1" d="M48.79,2.74c-.03-.98-.62-1.33-1.15-1.33-.79,0-1.71.01-2.72.04l-2.97.09c-.97.03-1.85.04-2.6.04-.02,0-.17-.03-.69-.25-.49-.21-.87-.36-1.17-.46-.49-.16-.95-.06-1.29.28l-.1.1-.05.14c-.04.11-.06.23-.08.37-.34.04-.84.11-1.51.19-.98.13-1.85.22-2.59.28-.59.05-.99.05-1.25.03-.03-.21-.11-.4-.26-.55-.4-.42-1.09-.4-1.57-.35-1.43.15-3.51.61-6.18,1.39-.07,0-.25-.04-.65-.17-.55-.17-.92-.27-1.18-.31-.36-.04-.6.09-.74.2-.22.18-.34.44-.37.78-.01.14-.02.26-.02.37-.45.18-1.03.35-1.76.52,0,0-.03,0-.11,0-.16-.01-.45-.04-.68.17l-.21.19v.1c-.32.66.17,1.52.36,1.86.31.47.7.77,1.14.9.39.11.75.11,1.08,0-.05.79-.1,1.71-.16,2.77-.06,1.17-.12,2.3-.17,3.4-.05.87-.09,1.66-.14,2.38l-.85.03c-.13,0-.59.04-.78.62-.06.18-.1.38-.12.59-.02.21-.02.42,0,.62.02.26.09.5.2.7.18.32.48.51.82.51h.41c.11,0,.21,0,.31,0,0,.68-.03,1.78-.06,3.3-.04,2.21-.05,4.14-.02,5.76.04,2.27.22,2.91.38,3.23.24.43.71.82,1.43,1.19.64.32,1.25.48,1.81.48.05,0,.1,0,.16,0,.4,0,.68-.07.9-.22.28-.2.42-.52.38-.87-.02-.21-.09-.42-.2-.62-.06-.11-.13-.26-.2-.45-.07-.16-.11-.31-.13-.43-.08-1.38-.13-2.69-.13-3.91s.03-2.87.09-4.81c.04-1.42.07-2.41.08-2.99.14-.02.3-.05.48-.07l.91-.13c.35-.05.58-.14.72-.28.42-.38.64-.92.64-1.6,0-.45-.14-.79-.42-1.01-.28-.22-.64-.28-1.05-.18-.5.1-.92.18-1.25.24.2-2.95.36-5.25.47-6.89.09-1.4.14-2.15.16-2.56.63-.17,1.4-.43,2.33-.8,1.1-.43,1.83-.71,2.18-.83.17-.04.34-.12.52-.23.02-.01.04-.02.06-.03.27.62.84.99,1.63,1.02.55,0,1.47-.08,2.82-.24.93-.11,1.69-.18,2.26-.22.06,2.33-.07,10.01-.38,22.88,0,.24-.03.74-.09,1.49-.06.76-.09,1.32-.09,1.69-.04.57.35,1.08,1.15,1.5.46.24.92.36,1.38.36.27,0,.53-.04.8-.12.58-.18,1.27-.69,1.32-2.14,0-.65.02-3.14.06-7.61.04-4.42.09-8.33.13-11.75.04-3.39.11-5.59.19-6.56h0c.5-.04,1.67-.05,3.48-.07,2.81-.02,3.61-.16,3.93-.26.3-.07.99-.37.96-1.48Z"/><path class="cls-3" d="M55.84,16.75c-1.48.26-2.33.4-2.82.47.02-.6.05-1.66.12-3.46.09-2.37.14-4.2.17-5.43.02-.59.15-1.09.37-1.47.19-.34.4-.54.6-.6,1.79-.48,3.07-1.01,3.92-1.61,1-.72.91-1.54.76-1.97-.12-.36-.56-1.19-1.96-.95-6.47,1.08-7.62,2.09-7.89,2.93h0c-.47,1.48-.83,3.77-1.07,6.79-.23,2.98-.33,5.97-.3,8.89.03,2.9.13,5.37.31,7.35.1.99.33,1.71.7,2.23.36.5.93.96,1.73,1.41.51.29,1.06.5,1.65.65.48.12.97.18,1.44.18.11,0,.21,0,.32,0,.65-.04,1.24-.26,1.75-.67.52-.41.89-.98,1.09-1.69.26-.9-.06-1.61-.87-1.92-.79-.29-1.5-.01-1.91.76-.11.22-.24.37-.41.45,0,0-.02,0-.07-.03-.08-.13-.39-.82-.53-4.13-.11-2.5-.1-3.77-.06-4.41,1.37-.13,2.37-.28,3.03-.44.21-.04.4-.12.58-.24,1.11-.53,1.34-1.28,1.34-1.8.03-.5-.19-.8-.37-.96-.35-.31-.89-.41-1.65-.28Z"/><path class="cls-2" d="M74.63,3.35c-1.32-1.48-3.19-2.28-5.54-2.37-2.29-.09-4.52.38-6.65,1.4-2.15,1.03-3.75,2.39-4.77,4.05-.34.58-.19,1.29.43,2.11.28.37.74.85,1.3.84.19,0,.54-.07.82-.47.48-.69,1.22-1.42,2.2-2.15.25-.19.51-.36.76-.53,0,.04,0,.07,0,.11-.04,2.11-.09,2.87-.12,3.13l-.31,6.92c-.03.37-.04.55-.04.66,0,0,0,.01-.02.02-.1.1-.15.13-.15.13h0s-.76.33-.76.33c-.41.18-.81.35-1.17.52-.43.18-.89.43-1.02.86-.19.62.44,1.11.71,1.31l.06.04c.48.29.86.47,1.16.56.32.09.66.11,1.01.05v9.43c-.03.49.12,1.18,1.01,1.71.62.38,1.27.52,1.94.43.79-.11,1.3-.6,1.39-1.32.02-.15.05-.49.07-1.74l.04-2.9c.01-1.02.04-2.12.06-3.28.01-.44.02-.84.04-1.21.11.37.22.73.32,1.09.18.63.35,1.17.51,1.63.16.47.33.96.52,1.46.19.5.34.91.45,1.23.12.33.28.72.49,1.19.2.44.34.76.43.96.09.21.24.53.44.95.21.44.35.72.43.85l.45.82c.28.51.33.65.33.65l.05.14c.3.56.82.88,1.5.93.06,0,.12,0,.17,0,.54,0,1.03-.16,1.47-.49.2-.17.44-.4.49-.72.04-.26-.03-.53-.22-.75-.07-.09-.21-.24-.4-.46-.14-.16-.26-.36-.36-.6-.86-1.95-1.8-4.33-2.8-7.08-.85-2.34-1.4-4.03-1.65-5.02,1.42-.76,2.66-1.76,3.71-2.98,1.15-1.34,1.96-2.76,2.41-4.22.46-1.46.6-2.94.44-4.39-.17-1.49-.73-2.78-1.65-3.82ZM71.51,10c-.32,1.16-.93,2.31-1.82,3.42-.65.82-1.43,1.47-2.31,1.93.01-.21.03-.46.05-.72.06-.86.11-1.6.15-2.2.04-.61.09-1.37.15-2.28.06-.93.08-1.58.07-1.99-.02-.38-.04-.78-.07-1.19v-.09s-.04-.08-.04-.08c-.24-.64-.89-1.16-2.01-1.62-.14-.05-.27-.09-.39-.13,1.17-.53,2.32-.85,3.43-.94,1.1-.09,1.92.09,2.43.54.46.4.71,1.06.76,1.96.05,1.08-.08,2.23-.41,3.4Z"/><path class="cls-4" d="M93.51.67c-.43-.26-.89-.45-1.36-.58-.6-.16-1.11-.11-1.52.17-.17.11-.38.34-.42.75-.02.2,0,.45.05.75.04.22.03.35.02.45-.23,2.02-.4,4-.5,5.9-.1,1.89-.17,4.27-.22,7.08-.04,2.4-.07,4.2-.1,5.42-1.17.06-3.28.22-6.29.48-.03-2.09.07-4.82.29-8.12.24-3.68.4-6.16.46-7.4,0-.39-.11-.8-.34-1.22-.52-.91-1.35-1.47-2.47-1.69-.68-.1-1.22,0-1.6.33-.36.3-.55.75-.57,1.33-.09,1.52-.15,3.42-.2,5.65-.04,2.22-.09,4.38-.13,6.47-.04,1.85-.12,3.55-.24,5.05l-1,.09c-.6.05-1.07.52-1.38,1.38-.16.39-.34.97-.05,1.41.1.15.33.39.79.39.2,0,.58-.03,1.15-.09.19-.02.36-.04.49-.05.03.52.03,1.08.02,1.68-.01.87-.04,1.98-.06,3.35-.03,1.38-.04,2.28-.04,2.72l.17.79.04.08c.47.83,1.31,1.35,2.51,1.56.24.04.46.06.65.06.45,0,.81-.11,1.09-.33.21-.17.47-.49.49-1.05.03-.69.05-1.63.07-2.85.01-1.2.01-2.55,0-4.02-.01-1.05-.02-1.86-.02-2.43,2.51-.24,4.59-.38,6.2-.41-.02.77-.05,1.66-.07,2.68-.03,1.33-.07,2.68-.13,4.01-.04.47.06.92.29,1.34.54.97,1.53,1.5,2.94,1.57.77.02,1.28-.11,1.6-.44.21-.22.31-.5.29-.8-.32-12.58-.1-22.09.64-28.25.11-.68,0-1.33-.33-1.93-.31-.57-.72-1.01-1.2-1.29Z"/><path class="cls-8" d="M108.66,4.21c-.91-1.75-2.34-2.73-4.25-2.93-1.89-.19-3.53.42-4.88,1.83-1.04,1.07-1.91,3-2.69,5.92-.74,2.82-1.19,5.8-1.34,8.87-.15,3.09.12,5.99.8,8.6v.02c.52,1.76,1.4,3.29,2.62,4.54,1.08,1.11,2.36,1.67,3.82,1.67.28,0,.57-.02.87-.06,1.27-.19,2.37-.68,3.27-1.46.91-.79,1.69-2.13,2.37-4.1.74-2.18,1.18-4.91,1.31-8.12.13-3.18,0-6.15-.37-8.83-.39-2.75-.89-4.7-1.54-5.95ZM106.48,19.13c-.07,2.69-.41,5.12-.99,7.21-.37,1.3-1.03,2.9-2.06,3.09-.4.06-.72-.01-1.01-.23-.5-.38-1.17-1.4-1.51-4.11-.44-3.43-.33-7.26.32-11.36.65-4.07,1.54-6.92,2.66-8.48h0c.3-.42.54-.6.66-.6.01,0,.02,0,.03,0,.3.1.56.32.79.66.26.4.46.88.59,1.44.19.86.35,2.46.46,4.77.11,2.33.14,4.89.06,7.62Z"/><path class="cls-6" d="M128.21,29.11c-.09-2.6-.06-6.75.07-12.33.13-5.6.15-9.6.06-11.88l-.07-.44-.05-.09c-.33-.62-.96-1.12-1.89-1.5-.75-.28-1.33-.27-1.78.01-.39.25-.61.69-.65,1.3-.28,4.07-.45,8.47-.48,13.08-.23.41-.68,1.22-1.4,2.52-1,1.84-1.73,3.19-2.24,4.09-1.89,3.23-2.73,3.95-3.01,4.11-.52-1.43-.84-3.28-.95-5.5-.11-2.25-.07-4.44.13-6.49.2-2.06.47-4.15.82-6.24.34-2.07.64-3.67.88-4.75.31-1.4.44-1.84.48-1.97l.02-.07c.05-.23.04-.45-.02-.69-.17-.53-.69-1.14-2.22-.99-1.69.22-2.3,1.17-2.5,1.92-.32,1.17-.64,2.57-.96,4.18-.32,1.6-.63,3.58-.94,5.88-.3,2.31-.48,4.53-.52,6.6-.04,2.1.14,4.15.55,6.07.43,1.99,1.13,3.53,2.1,4.56.49.52,1.01.9,1.54,1.14.58.26,1.17.32,1.73.19.48-.11.94-.28,1.36-.51.45-.24.9-.64,1.37-1.21.42-.5.8-.98,1.14-1.43.35-.46.73-1.07,1.13-1.81.39-.72.71-1.32.97-1.79.16-.29.33-.62.53-1,0,.63,0,1.29,0,1.97.03,1.86.23,3.27.6,4.34.24.64.73,1.09,1.47,1.36.35.12.69.19,1.03.19s.7-.07,1.05-.2c.55-.25.74-.61.8-.88.07-.29.05-.64-.07-1.1-.11-.45-.11-.59-.11-.63Z"/><path class="cls-5" d="M146.41,3.35c-1.32-1.48-3.19-2.28-5.54-2.37-2.29-.09-4.52.38-6.65,1.4-2.15,1.03-3.75,2.39-4.77,4.05-.34.58-.19,1.29.43,2.11.28.37.74.85,1.3.84.19,0,.54-.07.82-.47.48-.69,1.22-1.42,2.2-2.15.25-.19.51-.36.76-.53,0,.04,0,.07,0,.11-.04,2.11-.09,2.87-.12,3.13l-.31,6.92c-.03.37-.04.55-.04.66,0,0,0,.01-.02.02-.1.1-.15.13-.15.13h0s-.76.33-.76.33c-.41.18-.81.35-1.17.52-.43.18-.89.43-1.02.86-.19.62.44,1.11.71,1.31l.06.04c.48.29.86.47,1.16.56.32.09.66.11,1.01.05v9.43c-.03.49.12,1.18,1.01,1.71.62.38,1.28.52,1.94.43.79-.11,1.3-.6,1.39-1.32.02-.15.05-.49.07-1.74l.04-2.9c.01-1.02.04-2.12.06-3.28.01-.44.02-.84.04-1.21.11.37.22.73.32,1.09.18.63.35,1.17.51,1.63.16.47.33.96.52,1.46.19.5.34.91.45,1.23.12.33.28.72.49,1.19.2.44.34.76.43.96.09.21.24.53.44.95.21.44.35.72.43.85l.45.82c.28.51.33.65.33.65l.05.14c.3.56.82.88,1.5.93.06,0,.12,0,.17,0,.54,0,1.03-.16,1.47-.49.2-.17.44-.4.49-.72.04-.26-.03-.53-.22-.75-.07-.09-.21-.24-.4-.46-.14-.16-.26-.36-.36-.6-.86-1.95-1.8-4.33-2.8-7.08-.85-2.34-1.4-4.03-1.65-5.02,1.42-.76,2.66-1.76,3.71-2.98,1.15-1.34,1.96-2.76,2.41-4.22.46-1.46.6-2.94.44-4.39-.17-1.49-.73-2.78-1.65-3.82ZM143.28,10c-.32,1.16-.93,2.31-1.82,3.42-.65.82-1.43,1.47-2.31,1.93.01-.21.03-.46.05-.72.06-.86.11-1.6.15-2.2.04-.61.09-1.37.15-2.28.06-.93.08-1.58.07-1.99-.02-.38-.04-.78-.07-1.19v-.09s-.04-.08-.04-.08c-.24-.64-.89-1.16-2.01-1.62-.14-.05-.27-.09-.39-.13,1.17-.53,2.32-.85,3.43-.94,1.1-.09,1.92.09,2.43.54.46.4.71,1.06.76,1.96.05,1.08-.08,2.23-.41,3.4Z"/><path class="cls-7" d="M156.7,4.91c1.02-.06,1.91.45,2.74,1.55l.06.08.09.06c.29.2.7.27,1.25.23.62-.04,1.11-.37,1.39-.94.21-.42.31-1.1-.4-1.96-.94-1.16-2.16-1.95-3.61-2.35-1.44-.39-2.9-.34-4.33.16-1.44.51-2.59,1.42-3.41,2.72-.73,1.16-1.22,2.41-1.45,3.73-.23,1.34-.07,2.78.48,4.28.56,1.5,1.57,2.85,3,4,1.44,1.19,2.59,2.49,3.42,3.87.81,1.35,1.27,2.61,1.36,3.72.09,1.08-.13,2.01-.66,2.84-.52.8-1.29,1.28-2.39,1.49-.94.21-2.01-.21-3.19-1.25-.47-.4-.92-.57-1.35-.51-.25.03-.6.16-.9.59-.35.5-.6,1.33.22,2.48v.02c.35.44.85.86,1.54,1.29.65.41,1.26.73,1.85.95.87.28,1.69.42,2.45.42,1.05,0,1.98-.27,2.8-.8,2.19-1.49,3.6-3.37,4.17-5.57.57-2.19.31-4.48-.77-6.8-1.06-2.27-2.8-4.38-5.18-6.29-1.13-.87-1.82-1.91-2.09-3.19-.27-1.26-.12-2.28.47-3.16.62-1.06,1.41-1.61,2.43-1.67Z"/></g></g></svg>