<?xml version="1.0" encoding="UTF-8"?><svg id="Layer_2" xmlns="http://www.w3.org/2000/svg" viewBox="0 0 143.23 131.95"><defs><style>.cls-1{fill:#fff;}</style></defs><g id="TEMPLATE"><g id="_03_Logo"><path class="cls-1" d="M75.79,121.78c-6.08-1.6-7.08-1.56-13.99.45l-28.24,8.22-4.42,1.19c-1.45.39-2.78.1-4.04-.59-2.39-1.29-4.83-2.58-6.62-4.72-2.11-2.52-4.71-5.89-5.37-9.02-.31-1.43-.36-2.44-2.05-2.82-.79-.18-1.8-.78-2.64-1.13l-2.66-1.11-3.25-1.46c-4.81-2.16-1.61-14.37.76-16.83l1.83-1.9c-.17.18,3.93-6.46,7.81-5.23,1.45.46,2.73.91,4.22,1.1,2.57.33,4.96.76,7.49,1.31l16.41,3.57c-8.43-6.92-14.27-14.05-12.47-25.46.72-4.01,2.13-7.73,3.96-11.63,1.11,4.24,3.26,7.99,7.06,10.45,0-1.85-.24-3.49-.51-5.27-2.35-14.66,5.39-17.01,8.16-25.2.39-1.16.53-2.35.85-3.63,5.16,5.46.72,13.55,5.71,17.89l.06-4.58c.07-5.1,3.47-11.86,6.01-16.26,1.84-3.18,3.46-6.31,4.47-9.86,1.86-6.55,1.14-13-1.97-19.25,2.42,1.07,4.29,2.36,6.3,3.8,6.56,4.7,11.64,11.11,14.25,18.78,1.2,3.52,2.02,7.07,1.68,10.76l-.44,4.8c2.39-1.71,4.4-3.86,5.61-6.57,1.47-3.29.52-6.57-.98-9.97,4.51,2.59,7.67,7.02,8.86,11.9,2.4,9.78-4.91,18.31,3.12,25.69l.06-3.21c.1-4.94,3.76-7.21,6.14-11.58l.68,2.96c.7,3.01,2.04,5.78,3.44,8.53l2.58,5.04c5.52,10.8.41,23.51-8.37,31.48l11.08-2.17c3.31-.65,6.62-1.21,9.79-2.19s6.33-.96,8.99,1.4c1.61,1.42,2.68,3.27,3.92,5.06,1.2,1.75,2.81,3.14,3.59,5.17.92,2.4.67,4.98-.34,7.34-1.19,2.79-3.13,4.87-5.23,6.99-1.09,1.09-1.86,2.44-2.87,3.65-.3.36-1.02.76-1.42,1.08-1.18.94-2.41,1.44-4,1.3-1.97,4.18-4.41,7.65-8.14,10.37-1.88,1.37-4.99,1.87-7.25,1.28l-37.62-9.92ZM77.5,86.07c3.34-2.19,5.42-5.14,6.24-8.84,1.92,3.09,2.73,6.74,2.13,10.25-.82,4.75-4.02,7.83-8.58,9.46,10.03,1.12,21.89-3.39,26.92-12.04,3.58-6.17,3.46-13.64.89-20.23-.71,1.87-1.13,3.54-1.96,5.2-2.05,4.1-5.36,7.38-9.56,9.6,1.52-5.19,2.28-10.05-1.16-14.37-3.9-4.13-4.69-8.99-5.33-14.69-1.95,2.46-3.48,5.16-4.47,8.17-.46,1.4-.42,2.87-.56,4.54-1.31-.93-2.55-2.2-3.01-3.84-1.38-4.95,1.63-7.95.8-15.54-.52-4.76-1.72-9.27-3.46-13.67-1.16,6.53-4.33,9.16-8.67,13.49-6.67,6.28-10.75,18.16-6.44,26.82-5.22-1.81-8.85-4.9-10.57-10.34-2.24,5.96-3.11,11.88-1,17.73.67,1.86,1.59,3.47,2.49,5.26-5.04-1.9-8.76-5.59-11.25-10.5-1.31,3.81.52,9.45,2.5,12.68,2.79,4.55,7.01,7.96,12.06,9.88,4.81,1.82,9.94,2.68,15.17,1.96-4.16-1.51-7.18-4.24-7.7-8.49-.44-3.56.82-7.22,3.36-9.67.16,2.57.46,4.58,2.38,6.08-.08-2.36.75-4.15,1.72-6.12,2.25-4.57,2.01-9.56.82-14.7,3.66,2.53,6.1,6.52,7.16,10.7.98,3.82.26,7.52-.95,11.22ZM13.01,100.18c.86-1.07,1.2-2.46,2.27-3.56,1,2.96-2.27,5.22-3.05,7.95,1.84-.49,2.5-1.87,3.36-3.23.77-1.22,1.76-2.36,2.12-3.79.67-2.71-.79-5.12-3.05-6.46-1.49-.88-3.02-.96-4.44.13-1.02.79-1.61,1.75-2.04,3.03-.26.78-1.09,1.38-1.66,2.03s-.91,1.6-1.27,2.42c-.73,1.66-1.47,3.32-1.52,5.13-.06,2.21,1.3,3.92,3.55,4.1,1.63.13,3.44-.7,4.6-2.01-.64.06-1.54.17-1.99.15-1.6-.07,2.99-5.73,3.11-5.88ZM32.03,94.56c-1.11-.77-2.2-1.03-3.37-1.32l-9.85-2.4c.49,1.75,2.03,2.46,3.65,2.64l9.58,1.08ZM119.97,96.63l-1.34,1.64c1.65-.21,3.02-.51,4.6-.95l10.47-2.92c.88-2.02-3.85-3.76-5.56-2.93l.67.95c.12.17-.44.65-.66.7l-10.11,2.47c-2.29.56-4.33,1.11-6.35,2.24.58.17,1.26.19,1.82.08l6.46-1.28ZM116.83,94.31c3.17-.72,6.01-1.42,9.03-2.43-.66-.18-1.29-.17-1.93-.04l-10.64,2.09c-2.28.45-4.46,1.05-6.53,2,3.57.11,6.68-.86,10.06-1.62ZM30.27,97.01c-2.65-1.3-5.48-1.59-8.38-1.62,2.54,1.38,5.47,1.88,8.38,1.62ZM130.55,100.43l5.98-1.5c.9-.23,2.58-4.1-8.58.66-1.27.54-2.61.89-3.51,1.94,2.22-.03,4.06-.58,6.11-1.09ZM41.11,104.84l10.29-3.45c1.36-.46,2.48-.9,3.88-1.71l-5.28-1.8c-6.58,2.1-12.98,3.91-19.61,5.6-1.62.41-3.04.81-4.66,1.45l3.98,2.25c.47.27,1.64.23,2.17.1,3.13-.78,6.1-1.38,9.24-2.43ZM109.01,113.09c.79.34,1.57-.27,1.88-.72l1.51-2.21c1.36-1.98-5.71-3.03-7.1-5,2.03.27,3.67.98,5.58,1.58,4.23,1.35,3.05,1.74,7.4-1.28-.66-.4-1.15-.67-1.79-.87l-18.67-5.82c-2.12-.66-4.01,1.28-5.09,1.3-1.78.03-3.22-.16-4.94.3l14.67,6.43c2.29,1,4.43,1.89,6.6,3.25-.16.34-.72.55-1.01.45l-6.38-2.18-12.35-4.28c-.49-.17-1.14-.23-1.7-.31.54.32,1.07.68,1.72.96l19.67,8.4ZM135.21,100.76c-1.3-.23-2.41.02-3.32.92,1.25.14,2.34-.36,3.32-.92ZM35.61,114.41c.72.17,1.42.23,2.02.04l10.41-3.24,16.63-5.63c1.69-.57,3.25-.89,4.86-2.06-1.28-.13-2.42.06-3.61.34l-8.8,2.11c-.8.19-1.46.33-2.32,0l5.11-2.82c.44-.24.95-.67,1.25-1.14-.66-.59-1.55-.8-2.34-.62-2.96.66-5.74,1.43-8.65,2.23l-5.07,1.4c-1.09.3-13.42,3.42-12.78,4.26.6.78,1.88.64,2.84.4l13.18-3.29c1.46-.36,2.73-.65,4.27-.56-1.14.91-2.13,1.28-3.28,1.8l-10.7,4.73c-1.16.51-2.09,1.04-3.03,2.05ZM139.77,102.39c-1.06-1.04-5.44,1.32-6.79,2,.9.25,6.35-.61,6.79-2ZM105.55,115.86l-9.88-4.76c-1.72-.83-3.18-1.81-4.85-2.78-2.25-1.29-4.74-2.35-7.2-3.15-1.01-.33-2.02-.49-2.99-.91-1.44-.63-2.74-1.16-4.3-1.49.49.49,1,.85,1.6,1.15l8.56,4.3,15.33,7.37c2.15,1.03,4.1,2.17,6.51,2.49-.71-1.07-1.67-1.68-2.78-2.22ZM31.12,125.55c4.04-2.91,1.52-14.82-8.15-17.77-1.49-.45-2.91-.3-4.25.52-.97.59-1.73,1.91-1.94,3.31-.34,2.27.22,4.38,1.16,6.41,1.59,3.44,4.1,6.12,7.58,7.71,1.73.79,3.89,1.05,5.6-.18ZM117.38,126.98c2.44-.97,4.32-2.61,5.8-4.72,2.32-3.31,4.66-8.06,2.99-12.04-.84-2.01-2.69-2.8-4.7-2.13-2.32.77-4.2,2.25-5.89,4.06-1.87,2.7-3.23,5.7-3.63,9.06-.14,1.18.15,2.55.51,3.65.68,2.08,2.85,2.94,4.92,2.12ZM93.43,117.04c-.41-.5-.79-.87-1.22-1.08-4.68-2.24-9.2-4.58-14.33-6.04,4.19,2.7,8.61,4.62,13.11,6.55.79.34,1.55.47,2.44.57ZM58.47,117.1l9.94-3.35c1.83-.62,3.54-.84,5.24-2.02-.87-1.4-5.76.49-6.96.96l-9.04,3.51c-1.06.41-1.95.98-2.85,1.73,1.3-.13,2.39-.39,3.68-.83ZM80.26,116.84c-.91-1.2-5.89-3.53-6.66-2.05,1.98,1.22,4.24,2.11,6.66,2.05ZM36.03,124.46c3.91-1.06,7.58-2.7,10.66-5.31-1.26-.23-11.7,3.36-10.66,5.31Z"/><path class="cls-1" d="M21.09,114.05c.74,3.34,2.14,4.23,3.5,7.16-2.25.72-6.93-8.29-4.13-9.97.85-.51,1.83-.6,2.78.02-.43.76-2.62.64-2.14,2.8Z"/><path class="cls-1" d="M30.04,118.07c-1.9-1.19-.93-2.31-3.7-4.7-.47-.41-.9-.93-.65-1.57,2.68.81,4.62,3.52,4.35,6.26Z"/><path class="cls-1" d="M27.38,122.83c-1.01.68-2.19-.24-2.34-1.37.86.14,1.62.49,2.34,1.37Z"/><path class="cls-1" d="M119,113.3c-1.38,1.01-2.44,4.53-4.06,5.18.11-3.37,3.25-5.72,5.52-7.64.61-.52,1.53-.83,2.27-.27l-3.73,2.73Z"/><path class="cls-1" d="M123.29,113.75c2,.92-1.48,7.75-3.59,7.58l2.27-4.13,1.32-3.45Z"/><path class="cls-1" d="M117.16,123.78c.28.01.72.16.94.28-.7.57-2.12,1.3-3.01.58-1.25-1-1.21-3.42-.02-4.54.92.96-.51,3.55,2.09,3.68Z"/><path class="cls-1" d="M9.94,97.34c-3.01,4.09-1.46,2.82-3.67,6.74-1.63-1.62,1.88-6.94,2.8-8.29s2.23-3.56,3.77-3.47c.24.01.18.84.02,1.05l-2.92,3.97Z"/></g></g></svg>