<?xml version="1.0" encoding="UTF-8"?><svg id="Layer_2" xmlns="http://www.w3.org/2000/svg" xmlns:xlink="http://www.w3.org/1999/xlink" viewBox="0 0 454.83 454.83"><defs><style>.cls-1{fill:url(#linear-gradient-15);}.cls-2{fill:url(#linear-gradient-13);}.cls-3{fill:url(#linear-gradient-28);}.cls-4{fill:url(#linear-gradient-53);}.cls-5{fill:url(#linear-gradient-42);}.cls-6{fill:url(#linear-gradient-46);}.cls-7{fill:url(#linear-gradient-2);}.cls-8{fill:url(#linear-gradient-43);}.cls-9{fill:url(#linear-gradient-25);}.cls-10{fill:url(#linear-gradient-10);}.cls-11{fill:url(#linear-gradient-12);}.cls-12{fill:url(#linear-gradient-40);}.cls-13{fill:url(#linear-gradient-27);}.cls-14{fill:url(#linear-gradient-37);}.cls-15{fill:url(#linear-gradient-39);}.cls-16{fill:url(#linear-gradient-52);}.cls-17{fill:url(#linear-gradient-47);}.cls-18{fill:url(#linear-gradient-26);}.cls-19{fill:url(#linear-gradient-4);}.cls-20{fill:url(#linear-gradient-35);}.cls-21{fill:url(#linear-gradient-30);}.cls-22{fill:url(#linear-gradient-44);}.cls-23{fill:url(#linear-gradient-49);}.cls-24{fill:url(#linear-gradient-3);}.cls-25{fill:url(#linear-gradient-34);}.cls-26{fill:url(#linear-gradient-5);}.cls-27{fill:url(#linear-gradient-38);}.cls-28{fill:url(#linear-gradient-22);}.cls-29{fill:url(#linear-gradient-24);}.cls-30{fill:url(#linear-gradient-33);}.cls-31{fill:url(#linear-gradient-51);}.cls-32{fill:url(#linear-gradient-8);}.cls-33{fill:url(#linear-gradient-14);}.cls-34{fill:url(#linear-gradient-29);}.cls-35{fill:url(#linear-gradient-20);}.cls-36{fill:url(#linear-gradient-17);}.cls-37{fill:url(#linear-gradient-50);}.cls-38{fill:url(#linear-gradient-7);}.cls-39{fill:url(#linear-gradient-9);}.cls-40{fill:#1b325a;filter:url(#drop-shadow-1);}.cls-41{fill:url(#linear-gradient-11);}.cls-42{fill:url(#linear-gradient-19);}.cls-43{fill:url(#linear-gradient-6);}.cls-44{fill:url(#linear-gradient-36);}.cls-45{fill:url(#linear-gradient-21);}.cls-46{fill:url(#linear-gradient-45);}.cls-47{fill:url(#linear-gradient-48);}.cls-48{fill:url(#linear-gradient-32);}.cls-49{fill:url(#linear-gradient-41);}.cls-50{fill:url(#linear-gradient-16);}.cls-51{fill:url(#linear-gradient);}.cls-52{fill:url(#linear-gradient-23);}.cls-53{fill:url(#linear-gradient-31);}.cls-54{fill:url(#linear-gradient-18);}</style><filter id="drop-shadow-1" x="0" y="0" width="454.83" height="454.83" filterUnits="userSpaceOnUse"><feOffset dx="20.17" dy="9.41"/><feGaussianBlur result="blur" stdDeviation="20.17"/><feFlood flood-color="#231f20" flood-opacity=".25"/><feComposite in2="blur" operator="in"/><feComposite in="SourceGraphic"/></filter><linearGradient id="linear-gradient" x1="50.07" y1="154.68" x2="315.27" y2="419.88" gradientUnits="userSpaceOnUse"><stop offset="0" stop-color="#fbb040"/><stop offset="1" stop-color="#ec008c"/><stop offset="1" stop-color="#ed2789"/></linearGradient><linearGradient id="linear-gradient-2" x1="40.91" y1="163.84" x2="306.11" y2="429.04" xlink:href="#linear-gradient"/><linearGradient id="linear-gradient-3" x1="66.17" y1="138.58" x2="331.36" y2="403.78" xlink:href="#linear-gradient"/><linearGradient id="linear-gradient-4" x1="169.38" y1="35.37" x2="434.57" y2="300.57" xlink:href="#linear-gradient"/><linearGradient id="linear-gradient-5" x1="333.75" y1="167.18" x2="415.13" y2="248.56" xlink:href="#linear-gradient"/><linearGradient id="linear-gradient-6" x1="157.34" y1="47.4" x2="422.54" y2="312.6" xlink:href="#linear-gradient"/><linearGradient id="linear-gradient-7" x1="3.67" y1="201.08" x2="268.86" y2="466.28" xlink:href="#linear-gradient"/><linearGradient id="linear-gradient-8" x1="157.14" y1="47.61" x2="422.34" y2="312.8" xlink:href="#linear-gradient"/><linearGradient id="linear-gradient-9" x1="151.36" y1="53.39" x2="416.56" y2="318.58" xlink:href="#linear-gradient"/><linearGradient id="linear-gradient-10" x1="175.9" y1="28.85" x2="441.1" y2="294.05" xlink:href="#linear-gradient"/><linearGradient id="linear-gradient-11" x1="189.9" y1="14.85" x2="455.1" y2="280.05" xlink:href="#linear-gradient"/><linearGradient id="linear-gradient-12" x1="167.27" y1="37.48" x2="432.47" y2="302.68" xlink:href="#linear-gradient"/><linearGradient id="linear-gradient-13" x1="192.2" y1="12.54" x2="457.4" y2="277.74" xlink:href="#linear-gradient"/><linearGradient id="linear-gradient-14" x1="113.78" y1="90.97" x2="378.98" y2="356.17" xlink:href="#linear-gradient"/><linearGradient id="linear-gradient-15" x1="154.52" y1="50.23" x2="419.72" y2="315.43" xlink:href="#linear-gradient"/><linearGradient id="linear-gradient-16" x1="159.53" y1="45.22" x2="424.73" y2="310.42" xlink:href="#linear-gradient"/><linearGradient id="linear-gradient-17" x1="186.62" y1="18.13" x2="451.82" y2="283.32" xlink:href="#linear-gradient"/><linearGradient id="linear-gradient-18" x1="181.97" y1="22.78" x2="447.17" y2="287.98" xlink:href="#linear-gradient"/><linearGradient id="linear-gradient-19" x1="143.29" y1="61.46" x2="408.49" y2="326.66" xlink:href="#linear-gradient"/><linearGradient id="linear-gradient-20" x1="191.78" y1="12.97" x2="456.97" y2="278.17" xlink:href="#linear-gradient"/><linearGradient id="linear-gradient-21" x1="78.99" y1="125.76" x2="344.19" y2="390.96" xlink:href="#linear-gradient"/><linearGradient id="linear-gradient-22" x1="173.22" y1="31.53" x2="438.42" y2="296.72" xlink:href="#linear-gradient"/><linearGradient id="linear-gradient-23" x1="130.67" y1="74.08" x2="395.87" y2="339.28" xlink:href="#linear-gradient"/><linearGradient id="linear-gradient-24" x1="133.56" y1="71.19" x2="398.76" y2="336.39" xlink:href="#linear-gradient"/><linearGradient id="linear-gradient-25" x1="170.07" y1="34.67" x2="435.27" y2="299.87" xlink:href="#linear-gradient"/><linearGradient id="linear-gradient-26" x1="206.87" y1="-2.12" x2="472.07" y2="263.07" xlink:href="#linear-gradient"/><linearGradient id="linear-gradient-27" x1="148.37" y1="56.38" x2="413.57" y2="321.57" xlink:href="#linear-gradient"/><linearGradient id="linear-gradient-28" x1="200.13" y1="4.62" x2="465.32" y2="269.82" xlink:href="#linear-gradient"/><linearGradient id="linear-gradient-29" x1="64.75" y1="140" x2="329.95" y2="405.2" xlink:href="#linear-gradient"/><linearGradient id="linear-gradient-30" x1="148.14" y1="56.61" x2="413.34" y2="321.81" xlink:href="#linear-gradient"/><linearGradient id="linear-gradient-31" x1="142" y1="62.75" x2="407.2" y2="327.95" xlink:href="#linear-gradient"/><linearGradient id="linear-gradient-32" x1="163.74" y1="41" x2="428.94" y2="306.2" xlink:href="#linear-gradient"/><linearGradient id="linear-gradient-33" x1="102.53" y1="102.22" x2="367.72" y2="367.42" xlink:href="#linear-gradient"/><linearGradient id="linear-gradient-34" x1="142.45" y1="62.3" x2="407.65" y2="327.5" xlink:href="#linear-gradient"/><linearGradient id="linear-gradient-35" x1="142.17" y1="62.58" x2="407.37" y2="327.78" xlink:href="#linear-gradient"/><linearGradient id="linear-gradient-36" x1="-20.89" y1="225.64" x2="244.31" y2="490.84" xlink:href="#linear-gradient"/><linearGradient id="linear-gradient-37" x1="99.8" y1="104.95" x2="365" y2="370.15" xlink:href="#linear-gradient"/><linearGradient id="linear-gradient-38" x1="55.76" y1="148.99" x2="320.95" y2="414.19" xlink:href="#linear-gradient"/><linearGradient id="linear-gradient-39" x1="49.02" y1="155.73" x2="314.22" y2="420.93" xlink:href="#linear-gradient"/><linearGradient id="linear-gradient-40" x1="59.03" y1="145.72" x2="324.23" y2="410.92" xlink:href="#linear-gradient"/><linearGradient id="linear-gradient-41" x1="51.76" y1="152.99" x2="316.96" y2="418.18" xlink:href="#linear-gradient"/><linearGradient id="linear-gradient-42" x1="62.77" y1="141.98" x2="327.97" y2="407.18" xlink:href="#linear-gradient"/><linearGradient id="linear-gradient-43" x1="138.17" y1="122.32" x2="150.45" y2="134.6" xlink:href="#linear-gradient"/><linearGradient id="linear-gradient-44" x1="109.91" y1="94.84" x2="375.11" y2="360.03" xlink:href="#linear-gradient"/><linearGradient id="linear-gradient-45" x1="141.72" y1="125.88" x2="146.88" y2="131.05" xlink:href="#linear-gradient"/><linearGradient id="linear-gradient-46" x1="109.53" y1="95.22" x2="133.6" y2="119.28" xlink:href="#linear-gradient"/><linearGradient id="linear-gradient-47" x1="62.53" y1="142.25" x2="327.73" y2="407.44" xlink:href="#linear-gradient"/><linearGradient id="linear-gradient-48" x1="-13.16" y1="217.91" x2="252.03" y2="483.11" xlink:href="#linear-gradient"/><linearGradient id="linear-gradient-49" x1="118.22" y1="86.53" x2="383.42" y2="351.73" xlink:href="#linear-gradient"/><linearGradient id="linear-gradient-50" x1="85.05" y1="119.7" x2="350.25" y2="384.9" xlink:href="#linear-gradient"/><linearGradient id="linear-gradient-51" x1="40.57" y1="164.18" x2="305.76" y2="429.38" xlink:href="#linear-gradient"/><linearGradient id="linear-gradient-52" x1="14.52" y1="190.23" x2="279.71" y2="455.43" xlink:href="#linear-gradient"/><linearGradient id="linear-gradient-53" x1="106.35" y1="98.4" x2="371.55" y2="363.59" xlink:href="#linear-gradient"/></defs><g id="TEMPLATE"><g id="_03_Logo"><rect class="cls-40" width="454.83" height="454.83"/><path class="cls-51" d="M391.82,299.86c-19.43-8.71-57.85-14.01-79.44-15.83l-10.41-.88c-1.12-.09-2.34-.31-3.08-.51l2.07-1.08c2.99-.47,7.59,1.37,9.33.63.36-.15-.11-1.36-.46-1.53l-1.42-.69,5.95.65c2.26.25-.21-4.48-5.53-5.2l-7.24-.98.88-5.41c.74-4.56-2.63-8.06-5.25-11.19-1.84-2.19-4.28-3.98-7.2-4.52-1.98-.36-4.12.06-6.09.54-4.13,1.02-8.12,1.81-12.3,2.36l3.35-6.95c2.27-4.72,2.6-9.16,2.66-14.3.05-4.75-1.29-9.17-3.21-13.41-2.11-4.67-4.34-8.73-7.68-12.9l-3.08,3.56c.09.06.14.09.15.11-.04-.02-.2-.13-.37-.25l-4.37-9.66c-1.14-2.52-1.76-5.49-1.99-8.33-.39-4.8.74-6.69.2-10.66-5.45,2.26-8.91,6.17-10.27,11.48-.12.07-.25.14-.3.17l-.62-3.27c-1.25-6.52-3.92-12.37-8.38-17.34-5.06-5.64-12.5-10.54-20.06-12.99,2.44,8.41,4.73,15.67.81,24-1.91,4.06-4.9,6.49-7.69,10.49-4.23,6.05-3.62,6.77-4.9,14.41-.57-.74-1.16-1.58-1.51-2.38l-2.33-5.27c-4.56,5.21-6.47,10.28-8.65,16.63-2.4,6.98-2.12,7.09-3.03,15.03-1.06-1.16-2.43-2.6-3.82-3.81l-2.97-2.59-2.31,6.62c-1.56,4.49-.89,9.66,1.44,13.84,1.35,2.42,3.15,4.51,5.03,6.53l1.96,2.11c-5.12-.12-9.94-.67-14.87-1.61-3.78-.71-8.02-1.72-11.56.8-2.03,1.45-3.65,3.35-4.99,5.41-3.7,5.68-2.49,8.66-.77,14.63-5.08,1.43-9.47.58-14.24,4.45-.26.21-.61.99-.53,1.3.39,1.59,10.63-.62,12.6.24-1.76.61-2.91.85-4.66,1.77,1.96.22,3.49.08,5.39-.07l5.16-.41c3.18-.25,6.24-.12,9.26.04l-4.46.53-4.49.41-7.7.72-35.07,4.66c-8.74,1.16-17.04,2.87-25.55,4.94l-5.71,1.39c-7.77,1.89-19.6,5.15-26.38,9.04-3.17,1.82-4.08,5.61-2.05,8.66.6.91,1.55,1.99,2,2.98,2.78,6.11,3.77,11.74,4.47,18.4.17,1.62.41,3.35.39,4.99l-.19,24.54c-.01,1.38.17,3.25,1.03,4.25,1.63,1.89,3.83,3.16,6.2,3.88,10.07,3.05,20.19,3.68,30.65,2.86,6.24-.49,19.14-2.91,23.75-7.77l8.58,5.09,6.29,3.41c18.72,10.14,44.89,17.6,66.42,19.5,1.51.13,2.75.26,3.9.3l8.82.33c2.45.09,4.79.07,7.23-.01l8.82-.32c1.42-.05,2.95-.17,4.4-.34l7.2-.81c6.4-.72,12.56-2.03,18.83-3.52,15.87-3.75,34.5-10.97,48.25-19.49l4.8-2.97c1.34-.83,2.82-1.75,4.1-2.48.78,2.49,7.97,5.01,10.01,5.59,7.48,2.16,12.14,2.75,19.91,3.12,2.55.12,8.79-.19,11.29-.5,6.32-.78,14.08-2.04,19.21-5.62,1.94-1.35,2.78-3.43,2.77-5.7-.02-2.86-.07-5.63.1-8.45l.4-6.82.4-5.97c.09-1.31.2-2.73.39-4.04l1.5-10.09c.83-5.62,3.68-13.17,5.71-18.63,1.82-4.9-.53-7.91-4.9-9.86ZM296.82,265.57l-1.21.91c.71-.02,1.94.2,2.33.68.36.44.38,1.7,0,2.14-2.87,3.39-4.61,2.02-5.81,1.68-3.95-1.1-6.12.64-7.13-1.26l5.28-.82,1.79-.28.92,1.64,1.2-1.35-1.81-.24,1.73-1.77c-1.76.02-2.82.27-4.37.7l-4.02,1.12c-.19.05-.65.14-.8.17-.22.05-.21-.97.02-1l3.01-.37c4.84-.6,2.83-2.57,8.87-1.96ZM284.31,266.49l.57-.51c.11-.1.74-.11.91-.12.24-.02.05.88-.2.86-.43-.04-1.37-.14-1.27-.23ZM287.62,258.67c.69-.27,2.33-1.14,2.96-.73,1.2.78,2.16,2.1,2.98,3.3l-4.23.89,2.24,1.18-1.95.41-4.41.08c-1.01-2.37.19-4.28,2.41-5.14ZM276.81,259.46l8.49-1.66-2.16,3.95c-1.16.25-2.98.48-4.4.62l-5.09.51c-3.31.33-7.29,1.84-9.82,1.24l2.61-.8c1.93-.59,3.89-.68,5.79-.85l2.1-.2c2.48-.23,4.71-.54,6.9-1.52-6.16-.74-10.25,1.3-15.82,1.06,1.34-1.42,7.73-1.64,11.39-2.36ZM277.02,281.88l-8.34-.02c.04-3.82,5.4-7.15,9.27-7.17,1.97-.01,4.08,1.13,5.25,2.71.93,1.26,1,3.1.87,4.59l-5.82-.03.9-3.5c-1.65.53-1.92,1.78-2.13,3.41ZM266.71,277.14l-6.82-2.02-6.01-1.8c-1.54-.46-2.91-1.1-4.52-1.89,5.21-.47,6.25,2.15,8.92,1.86-3.11-1.48-6.08-2.61-9.23-3.74,3.26-1.27,3.29.23,6.86-.03l-2.23-1.81c.73,0,1.3.07,2.02.26,5.77,1.47,11.2,2.93,16.68,4.99l-6.2-.58,3.36,1.51c.34.15.77.85.83,1.23l-6.77-1.31-4.26-.73c2.08,1.91,5.78,2.33,7.38,4.06ZM257.37,277.63l-7.46-2.66c-2.8-1-5.55-2.02-8.27-3.24l-3.88-1.74c2.26.11,5.17,1.2,7.17,2l8,3.18c4.41,1.75,8.76,2.77,13,4.54-1.69.43-6.93-1.49-8.57-2.07ZM264.16,281.73c-2.07-.07-4.11-.94-6.12-2.42,2.18.35,4.11,1.05,6.12,2.42ZM232.21,269.97c4.14,1.3,7.98,2.72,11.95,4.4l6.14,2.6c-4.78-.15-14.53-4.16-18.09-7ZM246.28,279.62c-3.69-1.15-7.63-2.93-10.91-4.52,1.79.36,3.38.83,4.96,1.5l2.72,1.15c1.21.51,2.25,1.1,3.23,1.88ZM267.42,265.67c2.9-.68,8.46-1.52,11.7-1.5l2.88.28-3.6.46-6.99.88c-1.24.16-2.52.08-3.99-.12ZM251.47,200.99c.35,2.06.51,3.55,1.53,4.8,2.06,2.53,4.46,6.55,2.74,9.93-4.1-3.73-6.28-10.39-4.27-14.72ZM202.08,216.32c2.74,4.41,3.97,6.54,2.91,11.63-1.64-2.06-2.51-3.91-3.47-6.17l.57-5.45ZM193.56,236.59l.86,2.94c1.05,3.57,3.66,8.43,7.42,10.52-1.15-6.02-2.05-8.81.03-14.73l1.94,3.27c2.17,3.67,5.68,6.47,9.96,7.62l-2.02-3.16c-2.3-5.66-2.29-7.81-.91-13.37l.98-3.92c1.58,2.05,3.16,4.55,5.92,5.54l-1-8.16c-.5-4.08-.15-8.53,1.28-12.46,2.74-7.49,10.27-12.2,12.08-21.85.59-3.15-.01-6.33-.2-9.65,4.39,2.94,7.81,11.13,8.4,16.02.6,4.96.36,9.89-.25,14.88-.42,3.42-.42,8.3,2.01,10.98l2-3.52c.76-1.33,1.93-2.6,3.16-3.48-.74,6.64-1.09,12.27,3.32,17.4,3.41-2.61,4.87-6.02,5.38-10.2l2.33,2.83c3.33,4.04,2.54,10.72.75,15.29l-1.21,3.08c2.28-.11,6.62-4.61,7.88-6.56,2.35-3.62,3.13-7.69,3.6-11.81l1.1,3.53c3.2,10.28,1.52,23.26-7.5,30.03-6.98,5.23-14.65,7.18-23.52,6.95,2.1-1.01,3.88-2.05,5.32-3.87,3.69-4.66,3.54-10.05.79-15.13-1.91,5.96-1.79,6.17-7.15,9.46.41-2.82,1.04-5.34.99-8.06-.1-5.33-2.59-10.1-6.06-13.89-.64-.7-1.13-1.04-2.28-1.69l.47,3.99c.69,5.88-.28,9.35-3.05,14.66-1.09-1.68-1.21-2.77-1.69-4.81-2.91,3.16-4.84,8.74-2.93,13.17.63,1.47,2.07,3.49,3.45,4.19l3.85,1.94c-3.08.56-8.42-.19-11.86-.88-4.07-.82-10.07-3.76-13.27-6.4-4.53-3.74-8.92-7.51-10.61-13.5-.65-2.3-.16-4.76.24-7.21ZM200.43,279.81l-5.78,1.07c.99-1.02,12.3-3.86,12.84-3.92l5.19-.52,3.73-.79c3.56-.75,6.94-1.67,10.67-1.53-3.46,1.06-6.91,1.73-10.6,2.47l-16.05,3.22ZM213.01,279.73l-11.05,2.31c-1.01-.34-1.28-.48-.4-.47,3.17-.98,8.48-2.32,11.45-1.84ZM176.94,282.95c-.23-1.64.16-4.31,1.24-5.69,3.38-4.31,12.64.07,14.25,4.98-2.66.4-5.26.55-7.93.69l-3.61.18c-.06-1.85.97-3.02,2.39-4.3-4.52-.27-3.11,6.54-6.34,4.15ZM178.43,263.71c1.36-.47,2.8-.29,4.1.54l-4.1-.54ZM189.87,275.84l8.75-3.08-10.61.66c7.56-2.84,15.13-3.34,22.53-6.31l4.85,1.93-6.06,1.67c-1.14.31-2.15.67-3.31,1.14,4.09.38,6.12-1.3,10.16-1.02-.97.32-1.98.67-2.99.93l-6.78,1.68c-1.88.47-3.9.65-5.9.93-2.5.35-4.86.87-7.28,1.47-1.16.29-2.09.65-3.38.02ZM186.86,265.96c1.27-.07,2.63,0,4.06.17l3.58.42-5.18.12c-.58.01-1.72-.43-2.46-.71ZM219.01,272.76l5.22-.85c-.47.27-1.43.82-1.88.92l-9.39,2.08c-1.39.31-2.75.41-4.06.44,3.29-1.06,6.6-2.03,10.11-2.59ZM204.19,275.59l-7.24,1.88c-1.42-.52,7.35-2.3,7.24-1.88ZM227.14,276.39l1.53,1.66c-1.69.26-2.34.27-3.89,0l2.35-1.65ZM228.44,279.61l1.77.15c-2.59.61-4.66,1.03-7.32,1.25l5.55-1.4ZM183.27,259.78l6.41.76,10.06.89c1.07.09,1.77.19,2.37,1.31l-5.97-.42-9.21-.57c-2.05-.17-3.93-.39-6.18-.07,3.4.75,6.58,1.46,10.14,1.86l3.97.45,3.7.5c-1.37.21-2.84.21-4.3,0l-8.76-1.22-5.45-.57-3.59-.53-1.29-3.55,8.08,1.17ZM163.47,263.13l.79.27-2.32,2.55,1.53-2.83ZM166.86,272.27l-1.04,1.91.47.93-1.94.26c-.28.04-.95-.25-1.13-.46-1.44-1.64,5.02-7.49,5.81-10.07l-2.38,1.34.94-3.29c-1.76,1.44-2.38,2.65-3.19,4.16l-1.53,2.86c.29-1.21.66-2.32,1.14-3.22l3.06-5.72-2.19,1c1.1-1.63,3.25-3.72,5.58-3.51,2.87.25,4.36,3.8,3.82,6.41-.46,2.2-1.34,3.92-2.88,5.66.27-2.19,2.66-5.64,1.6-8.87-.25.65-.47,1.28-.7,1.99l-1.65,5.07-.19-2.77c-1.52,2.45-2.42,4.09-3.62,6.3ZM98.04,369.95l-6.28-.39c1.3-.32,2.63-.56,4.22-.74l8.06-.92c2.58-.29,4.88-.75,7.58-1.53-.96-.27-1.86-.35-2.91-.38l-6.42-.18c-3.6-.1-6.86-.36-10.6-1,3.01-.96,5.86-1.36,9-1.63l9.22-.79,8.41-.78,3.83,3.34c-5,4.32-18.06,5.37-24.11,5ZM109.08,360.02l5.65-1.11,1.36,1.41-3.25.24c-1.24.09-2.57-.18-3.75-.55ZM319.49,363.62c-10.74,6.9-21.83,12.67-33.84,17.08-12.33,4.52-28.87,8.57-41.96,9.73l-5.05.45-6.47.36c-9.93.55-25.97-.38-35.79-2.11-16.36-2.89-38.32-9.61-52.55-17.99l-11.39-6.7c-1.67-.98-6.85-4.77-9.15-6.7,2.36-.66,4.01-.91,6.23-1.15,6.67,4.49,13.34,8.54,20.56,12.25,5.77,2.97,11.61,5.23,17.7,7.56,12.8,4.91,31.89,8.91,45.54,9.66l6.85.37c3.19.17,6.42.17,9.62-.01l6.44-.36c10-.55,22.06-2.49,31.71-5.01,10.68-2.79,20.26-6.21,30.18-11.1,2.81-1.39,5.58-2.68,8.25-4.28l10.55-6.35c5.86-3.53,4.54-5.13,12.66-3.42-1.81,2.3-7.56,6.11-10.09,7.73ZM158.78,352.7c1.14-.22,2.33-.23,3.69-.01-1.14.22-2.33.23-3.69.01ZM162.79,352.29c1.69-.26,3.38-.26,5.29,0-1.69.26-3.38.26-5.29,0ZM261.54,362.01c-.43,0-.64-.69-.64-2.06,0-.47.05-.93.14-1.37.09-.44.25-.66.48-.66h5.87c.24,0,.44.05.59.16.15.11.22.24.22.4v14.08c0,.24-.73.36-2.17.36s-2.17-.12-2.17-.36v-10.56l-2.31.02ZM266.71,350.89l-12.48-.33-38.84-.07-3.65.3-9.82.11c-3.57.04-6.88-.11-10.19.11l-4.05.26-4.46.29-7.04.17-1.83.36c-1.72.34-4.17-.04-5.94-.18l5.23-.37,3.22-.22,4.4-.34,4.47-.37c1.85-.15,4.13.13,5.91-.18l1.71-.29,6.76-.13,8.85-.22,19.63-.2h10.85s14.83.18,14.83.18l13.55.41,1.7.23,5.97.21,4.44.26,4.43.26,5.62.37c-2.56.17-5.85.65-8.31.17l-1.83-.35-9.5-.13-3.62-.31ZM254.91,362.1c-.21-.2-.54-.3-.99-.3s-.9.09-1.35.26c-.45.17-.8.36-1.06.56-.56-.67-.94-1.38-1.16-2.12-.07-.24-.11-.47-.11-.67s.04-.4.11-.59c.11-.37.65-.72,1.6-1.05.95-.33,1.95-.49,3.01-.49,3.2,0,4.8,1.42,4.8,4.26,0,1.26-.43,2.53-1.29,3.82s-1.86,2.41-3,3.35l4.33-.17c.07.76.11,1.41.11,1.97s-.11,1.03-.34,1.41c-.23.39-.55.58-.96.58h-7.11c-.5,0-.85-.49-1.05-1.46-.1-.53-.15-.93-.15-1.2s.04-.45.13-.54c3.2-3.3,4.8-5.54,4.8-6.73,0-.4-.1-.7-.31-.9ZM248.58,365.46c0,2.59-.57,4.51-1.7,5.77s-2.6,1.9-4.39,1.9-3.26-.66-4.39-1.97c-1.14-1.31-1.7-3.23-1.7-5.76s.57-4.44,1.71-5.73c1.14-1.29,2.62-1.94,4.42-1.94s3.27.64,4.38,1.93c1.11,1.29,1.67,3.22,1.67,5.81ZM229.97,362.1c-.21-.2-.54-.3-.99-.3s-.9.09-1.35.26c-.45.17-.8.36-1.06.56-.56-.67-.94-1.38-1.16-2.12-.07-.24-.11-.47-.11-.67s.04-.4.11-.59c.11-.37.65-.72,1.6-1.05.95-.33,1.95-.49,3.01-.49,3.2,0,4.8,1.42,4.8,4.26,0,1.26-.43,2.53-1.29,3.82s-1.86,2.41-3,3.35l4.33-.17c.07.76.11,1.41.11,1.97s-.11,1.03-.34,1.41c-.23.39-.55.58-.96.58h-7.11c-.5,0-.85-.49-1.05-1.46-.1-.53-.15-.93-.15-1.2s.04-.45.13-.54c3.2-3.3,4.8-5.54,4.8-6.73,0-.4-.1-.7-.31-.9ZM205.41,361.82c-.24,0-.41-.33-.51-.99-.04-.31-.06-.64-.06-.96s.02-.65.06-.96c.1-.66.27-.99.51-.99h9.32c.24,0,.41.33.51.99.04.31.06.64.06.96s-.02.65-.06.96c-.1.66-.27.99-.51.99h-2.51v10.75c0,.29-.71.43-2.12.43s-2.12-.14-2.12-.43v-10.75h-2.57ZM216.64,368.27c1.28,0,2.31,1.04,2.31,2.31s-1.04,2.31-2.31,2.31-2.31-1.04-2.31-2.31,1.04-2.31,2.31-2.31ZM198.92,367.85c-.17-.16-.49-.35-.94-.57-.46-.21-.8-.38-1.03-.5-.23-.12-.53-.32-.91-.6-.38-.28-.67-.57-.87-.87-.57-.81-.86-1.85-.86-3.11s.47-2.32,1.4-3.18c.94-.86,2.16-1.3,3.67-1.3,1.03,0,1.98.11,2.85.33.87.22,1.32.51,1.35.87v.13c0,.5-.16,1.13-.47,1.9-.31.76-.54,1.19-.66,1.27-.91-.47-1.73-.71-2.45-.71s-1.08.26-1.08.77c0,.31.26.59.79.84.11.06.28.14.49.24.21.1.46.22.74.35.28.14.58.31.9.51.32.21.67.48,1.04.82.76.71,1.14,1.66,1.14,2.83,0,1.53-.42,2.78-1.26,3.75-.84.97-2.14,1.47-3.9,1.5-.86,0-1.63-.07-2.32-.21-.69-.14-1.3-.42-1.81-.84-.51-.41-.77-.91-.77-1.5s.11-1.17.32-1.75c.21-.58.44-.96.69-1.15.27.21.74.51,1.4.88.66.37,1.3.56,1.91.56s.91-.24.91-.71c0-.21-.09-.4-.26-.57ZM190.8,363.88c.27,0,.41.5.41,1.5,0,.3-.03.65-.1,1.06-.06.41-.18.61-.35.61h-2.72v2.14h3.94c.24,0,.41.31.49.94.04.27.06.56.06.87s-.04.7-.13,1.19c-.09.49-.23.73-.43.73h-7.33c-.54,0-.81-.22-.81-.66v-13.78c0-.37.16-.56.49-.56h7.67c.3,0,.45.63.45,1.9s-.15,1.9-.45,1.9h-3.96v2.16h2.76ZM290.32,351.89c1.69-.26,3.38-.26,5.29,0-1.69.26-3.38.26-5.29,0ZM330.87,364.02c1.92-1.02,6.12.42,7.13-.73l-3.94-1.61c-5.01-2.04,16.21-.32,15.53-.36l8.57.5c1.48.09,3.06.76,4.47,1.39-1.92.39-3.48.67-5.23.76l-14.63.76c7.05,2.28,14.32,1.33,21.13,3.3-7.17,1.46-27.56,1.72-33.02-4.01ZM336.54,359.13c.68-2.81,7.2-.75,10.3-.32-3.29.87-6.63.84-10.3.32ZM392.91,307.04l-1.38,3.89c-3.01,8.48-5.37,16.88-6.2,25.88l-.47,5.09-.49,8.04h-2.53s.62.31.62.31l1.56.77c.43.21.17,1.61-.15,2.01l-3.23-.66-2.82-.64c-.09-.02-.61.06-1.12.13-.24-.07.2.06.66.18l5.69,2.87c.62.31.98,1.7.88,2.33-.99.24-.86-.24-1.48-.41l-8.05-2.16c-.14-.04-.54-.09-.74-.11l-.67-.1-.66-.09-.64-.09-.79-.11c-.85.11-.88.16-.08.26l7.05,2.81c2.06.82,7.47,2.83,5.72,5.24-4.35-2.09-8.31-3.68-12.8-4.69l-15.64-3.52c-10.78-2.43-21.46-3.69-32.45-4.78l-18.7-1.86-4.03-.29-15.62-.93-5.63-.31-8.02-.35-21.39-.64-12.68-.13-13.63.06-11.64.17-15.61.48-6.04.28-5.71.31-7.15.42-6.08.39-6.33.51-19.63,1.89-4.86.53-31.87,4.7-8.69,1.71c-9.08,1.79-20.6,4.96-29.08,8.5-.11-.5-.3-1.97.07-2.29.55-.49,1.86-1.44,2.54-1.72l9.73-4.01c-3.11.29-5.95,1.06-8.89,1.93l-3.48,1.02v-2.48s3.64-2.06,3.64-2.06l-3.58.49.04-4.85c.08-10.12-.47-19.85-3.05-29.84l5.37-2.76c-1.73.02-3.71.54-5.46.97-.52.11-.85-1.5-.39-1.73l7.17-3.64c-3.08.09-5.42,1.06-8.21,2.23-.48-.6-.84-1.55-.87-2.45l10.08-4.59,1.25-.85-6.49,1.73c-1.8.48-3.83,1.33-5.75,2-.58.2-1.41-1.84-.88-2.17,9.6-6.09,38.68-12.61,50.32-14.32l26.48-3.91,17.72-1.91,5.14-.46,4.81-.42,4.84-.37,7.18-.47,6.03-.39,6.01-.38,7.62-.4,6.44-.26,7.2-.25,9.29-.25,35.92-.02,18.57.39,9.23.39,7.21.39,5.21.35,6.42.47,4.81.38,5.55.48c13.76,1.19,27.16,2.99,40.75,5.54,6.88,1.29,13.29,2.85,20.01,4.58,2.36.61,18.05,5,16.98,8Z"/><path class="cls-7" d="M242.48,361.84c-.55,0-1.01.31-1.39.93-.38.62-.57,1.5-.57,2.65s.18,2.02.55,2.62c.36.61.84.91,1.41.91s1.05-.31,1.41-.92c.36-.61.55-1.49.55-2.63s-.19-2.02-.57-2.63c-.38-.61-.84-.92-1.39-.92Z"/><path class="cls-24" d="M68.09,234.3c.57.41,1.32,1.96,1.19,2.61-.44,2.2-4.12,1.41-3.55,2.17,2.3,3.06,7.23-.01,10.04-1.01l.04,6.96c.01,2.27.09,4.51.25,6.79l.37,5.32c.5,7.15,1.59,14.13,3.49,21.05l.87,3.17.99,3.32c.79,2.63,1.77,5.07,2.84,7.63l9.67-2.32,25.75-4.7c-3.01-.72-5.69-.66-8.55-.95l-4.85-.48-5.63-.58,6.14-.46,16.08-1.2.53-.69c-5.19-.92-9.84-1.61-14.96-2.05l-3.73-.32-3.22-.26-3.63-.29-4.43-.36c3.18-.21,6.32-.41,9.67-.08l3.19.32,13.68-.06c1.72,0,3.41-.29,5.25-.58-2.26-.35-4.42-.55-6.82-.81l-20.84-2.27-4.51-.56-4.85-.36,8.89-.45,16.03-.18,20.09-.2c1.08-.01,2.45-.42,3.63-.75-2.25-.34-4.47-.69-6.86-.88l-6.45-.51-6.4-.49-8.03-.43-8.89-.46c.67-.19,1.75-.46,2.48-.52l4.85-.4,4.39-.41,5.19-.41,7.19-.42,3.84-.3c6.13-.48,12.78.2,18.21-2.35l2.9-1.36c1.65-.77,3.18-.76,4.88-1.7-3.42-.88-6.36-1.08-9.65-1.34l-3.71-.3-3.97-.26-11.58-.04c-.58,0-1.71.44-2.14.62l5.26.53c4.39.44,10.49.75,14.52,2.4l-.42.33c-2.01.02-3.89.03-5.81-.08l-6.2-.36-14.48-1.36-19.49-1.8c5.27-1.04,12.91-1.96,18.24-2.24l6.85-.36,14.03-.29,6.01-.24,10.04-.34c.35-.01,8.15-.37,6.99-1.08-.09-.06-.49-.4-.61-.42l-7.21-1.22c4.51-1.29,9.57.24,14.57-1.55-2.16-.61-4.23-.96-6.51-1.14l-4.9-.38c-.5-.04-1.53-.36-2.04-.55l7.3-.43,6.83-.41c4.9-.29,7.7.23,11.98-.05-1.31-4.04-.63-7.19-2.06-9.72-4.98-8.8-6.51-17.38-8.47-27.2-.92-4.58-1.68-8.97-1.63-13.69l.08-7.73c.61.64,1.05,1.07,1.41,1.57l6.39,8.91,2.45,3.42,3.05,3.91,6.15,7.41,2.9,3.36c.19.22,1.24.43,1.32.18l1.62-5.13c1.71-5.43,5.04-9.94,8.08-14.66l-.82-4.47c-.26-1.44-1.72-2-3.12-1.81-2.42.32-8.23.27-9.44-1.49-.38-.56.64-1.88,1.26-2.53.15-1.63-3.24-1.87-5.77-5.24-1.54-.6-4.04-.15-5.76.23-6.12,1.34-6.35,1.59-9.58-1.6-3.4-3.35-3.41-2.9-8.11-2.52-4.43.36-5.63,2.97-6.88,1.47-.45-.54-1.3-1.55-1.9-2.15-2.46.38-4.9.75-7.27,1.26-.84.18-1.92.79-2.8,1.09-2.69.92-1.94-2.82-3.89-2.21-2.53.79-4.9,1.48-7.48,2.15-.61.16-1.88.81-1.98,1.46l-.79,5.19-.93,6.12c-1,.68-2.93,1.75-4.05,1.64l-3.06-.31c.05-2.44,2.48-9.59,3.44-11.92,2.75-6.67,9.17-13.52,15.26-17.15l10.59-6.31c3.25-1.94,6.02-4.35,9.25-5.84-1.03.92-1.69,1.4-2.43,2.54l9.55-2.64-.02-.88c-2.26-.11-3.91.04-6.17.39,2.95-1.92,6.37-3.46,9.99-3.69l6.12-.39c1.11-.07,2.07-.32,2.89-1.23l-5.62-.45,5.05-4.61c.25.54.44,1.42.81,1.51l1.55.39-2.71,1.3c1.83,1.5,3.23.16,4.25-.78.98.82,2.54,1.17,3.82.64l-.32-2.12c2.19,1.17,4.08,1.84,6.46,1.34.48-1.5.64-3.22.68-4.71.3.01,1.78-.07,1.89-.52l.5-2.05c.28-1.14.36-2.77-.66-3.59-1.06-.85-2.4-1.49-3.38-1.93.34-.18,1.1-.98,1.05-1.37-.13-1.01-1.45-1.8-2.26-1.95.34-1.09.63-2.79-.13-3.57-3.3-3.4-5.14-.87-7.33-3.12-1-1.02-2.34-1.6-3.71-1.72l-.72,1.38-1.71-1.07c-.68-.43-2.25,1.59-2.58,1.22l-.73-.8c.98-.46,2.28-1.16,2.72-1.94.93-1.68-.67-2.79-1.85-3.49.53.15,2.63-.03,2.85-.77l.91-3.17c.28-.97-1.23-1.92-2.15-1.91l-3.59.02c-2.04-4.43-3.99-.27-5.3-3.17-.93-2.05-3.6-2.43-5.44-1.49l-2.28,1.17-.29,1.91-1.72-.84-4.94-.65,2.53-1.21-2.82-2.09c-.72-.53-1.71-.97-2.62-.81l-.37,2.55c-1.27-1.04-2.32-3.46-2.26-5.55-.02-.16-1.55-.1-1.92.21l-2.1,1.72c-.22-.26-.95-.82-1.13-.64-.47.5-.77,1.96-.96,2.75l-1.15,2.11-1.49-1.13c-.24-.18-.95-.37-1.25-.42-.3-.05-.82.93-.63,1.16.61.73,3.36,2.63,4.15.94l.83,1.06.03.78-3.32-.15c-2.46-2.5-1.47-.91-5.75-1.83-.7-.15-4.57-1.07-4.52.49l.04,1.2c.02.49,0,1.31,0,1.66-1.75.88-3.82,3.92-2.69,4.84.33.27,1.06.71,1.44.92l-4.91,2.34c.75-1.89,2.78-2.01,2.3-3.54-.62-1.97-4.88.72-5.95,2.35-2.67-.72-8.55-1.02-9.11,2.73l-1.42-.52c-.39.8-.17,1.67.53,2.16,2.35,1.64-.33,1.51,2.55,3.9-1.82.16-3.53-2.17-4.82-1.82-1.72.47-.54,3.38-.7,3.42l-.82.17c-.87.18-2.1.51-2.82.82-.7,1.32-.25,3.61,1.22,4.08.2.06,1.06.1,1.07-.1l.02-.91,2.91-.1c-.97.72-1.64,1.22-2.15,1.87,1.04,1.5,1.93,2.46,3.27,3.64l1.53-2.11,1.85,1.2-2.13,1.27,1.23,2.17c.21.37,1.25,1.07,1.71.93l3.87-1.23-.18,1.87c-.03.36.46,1.2.79,1.35.32.15,1,.02,1.4-.13l2.35-.92-.46,1.83h1.74c3.67,2.21,7.8,4.8,7.41,9.92-.22,2.86-.65,5.82-1.63,8.49-1.66,4.55-6.53,13.86-9.36,17.44-1.37,1.74-1.67,3.11-2.17,5.27-.54,2.34-1.61,4.69-2.54,7.03-.53-3.75-.95-6.82-2.08-10.16-.8-2.37-.81-5.02-.33-7.59.29-1.6,1.42-3.07,2.44-4.4,2.5-3.27,1.81-5.15,1.78-9.18,1.15.45,2.34,1.25,2.77,2.1.55,1.1.16,2.95-.23,4.25,3.67-.71,2.39-4.87,2.94-5.91l3.29-.31c.1-2.6-1.64-4.04-4.26-4.35l1.11-.53c.45-.21,1.43-.73,1.35-1.2l-.29-1.85,1.76-.48c.43-.12.94-1.09.87-1.53-.06-.36-.65-1.22-1.05-1.33l-4.36-1.18.03-1.2c-.93-1.15-2.33-1.48-3.98-.53l-.65-.75c-.06-.89-.18-1.83-.56-2.13-1.08-.87-2.96.33-3.16-.08l-.53-1.11c-.24-.5-1.69-.51-2.07-.1l-1.45,1.54c-.61-1.03-1.59-2.44-2.55-3.03-.4-.25-2.01-.12-2.19.29l-.65,1.45c-.51.12-1.4.34-2.01.54-3.4,1.16-.97,4.48-1.93,5.59-2.98-1-2.76-4.28-4.6-1.93l-4.07,5.2c.22.31,1.02.96,1.35.96l3.03-.07-.58,1.72c-.66-.6-1.92-1.12-2.68-.86l-2.26.77c-.43.15-.89,1.45-.72,1.66.82.18,1.92.31,2.42.55l2.97,1.43-2.3.63c-.55-.89-.75-1.21-1-1.56-.2-.28-1.55-.24-1.85-.07l-3.31,1.88c-.47.27-1.21,1.67-.84,2.12.72.82,2.55.98,3.86.84l-.68,1.02c-.21.32-.48,1.14-.33,1.48.14.34.97.64,1.34.66l4.36.32,1.19-2.08c1.13-.37,2.82.52,3.75,1.44,1.53,1.51,1.95,3.07,2.25,5.12.39,2.65,1.61,5.14,2.84,7.54,2.01,3.92,4.05,2.99,5.05,7.78-3.33-2.88-1.34-.21-4.05-2.87-.27-.27-1-.68-1.32-.53-1.76.82-1.13,2.08-2.66,2.04-2.73-.07-1.41-2.49-3.52-2.61-.48-.03-1.54.4-1.66.84-.12.46-.69,1.49-.89,1.23l-1.69-2.15,2.77-.68c-.97-.88-1.45-1.33-2.17-1.72-5.16-2.85-4.42-5.38-7.32-9.43-1.21,1.06.84,3.87-.65,6.85l-2.06-1.26c-2.78,1.21-.38,2.96-3.09,3.54-.7.15-1.24,1.19-1.04,1.78l2.02.62-1.95,1.84c-.38.36.34,1.49.92,2.06-.23.54-2.25-.14-2.59,1.17-.11.44.1,1.59.49,1.81.33.19.85.12,1.88.05l.34.61c.08.61.09,1.02.3,1.12l.95.44c-1.37.37-2.92,2.22-1.89,3.66.41.58,2.03.94,2.62,1.33l2.04,1.35c-.96.56-1.68,1.24-1.67,2,0,.74.9,1.81,1.66,1.86,2.06.12,3.44-.73,5.01-2.16l.52,2.4c.12.57,1.39,1.23,1.96,1.2,1.87-.08,1.75-3.08,2.45-2.13.74,1.01,3.06,2.34,4.21.62.25-.38.59-1.2.92-1.92l1.93,1.38c.52.82.94,1.49,1.6,2.11.93.87,2.06,3.26.82,3.93l-2.9,1.55.83-1.56c.32-.6-.04-1.98-.5-2.47-1.41-1.5-6.16-1.05-7.38-.03-.68.57.49,2.34,1.19,2.1.59-.2,1.37-.18,1.47,0l-2.68,2.38c-.32.28.6,1.46,1.06,1.41l2.43-.27-.49,2.26c-.51,2.39-2.93,2.24-3.78,3.15-.2.22-.16,1.18.03,1.41l1.39,1.74-4.03.04c-1.62.02-2.88,1.34-3.21,2.81l-2.3-2.21,2.67-.34c1.15-.52,2.06-3.1.57-3.88-1.01-.52-2.96-.24-4.14-.06l-1.57-.66-.85,2.5c-.33.98-1.12,2.6-2.45,2.61-.66,0-1.99-.74-2.67-1.06-.07,6.72-5.61,4.69-6.8,6.61-.85,1.37.18,4.22,2.63,4.9l-3.2.99c-.48.34-.94,1.88-.71,2.38.72,1.57,2.3.93,5.52,3.23ZM113.09,263.09l6.41.11c-2.96.88-5.94.85-9.2.76l-6.06-.17c-.69-.02-1.89-.37-2.8-.66l11.65-.04ZM113.74,134.34l-2.73-1.16c-.94.38-.8.27.01-.16.8-.99,2.06,1.15,2.63.64l1.42-1.26,2.71,2.08-2.79-.26c-.27-.02-1.09.09-1.26.11ZM116.94,138.19c-.44.35.1,1.56.43,2.13-.36.26-1.73-1.03-1.48-1.52.61-1.15,1.94-2.18,3.25-2.37l-2.21,1.76ZM120.1,133.19c-1.64-1.46-2.39-3.49-2.58-5.62l1.74,2.5c.69,1,1.21,1.85.84,3.12ZM120.7,142.29c-.26-.26.05-1.21.46-1.77l1.42,3.03c-.6-.27-1.41-.79-1.88-1.25ZM121.39,134.52l-.71-6.27,2.17,1.11c-.13,2.04-.38,3.41-1.46,5.16ZM128.49,149.78c-.36-4.2,1.57-.36,1.06-6.98-.02-.31-.91-.95-1.04-.79l-.87,4.81c-3.23-5.04,2.27-2.29.05-10.76l3.2-.36c5.07,3.96,3.78,7.26,1.76,12.9-.87,2.43-1.94,4.57-3.71,6.36l-.45-5.19ZM129.27,126.5l1.58-.51c.2-.06.79.8.65.95l-.82.85-1.41-1.29ZM155.88,150.71c.7-1.39,1.4-2.73,1.86-4.19,1.22-3.92,3.93-6.69,8.02-7.66,1.11-.26,2.13-.8,3.29-1.47.88,1.75-3.95,1.83-5.73,6.31-1.75,4.4-2.71,5.84-7.44,7.02ZM160.57,138.83c.43-1.77,1.06-2.82,2.25-4.36l2.1,1.76-4.35,2.6ZM175.09,138.38c-.37-.33-.6-.94-.56-1.59.49.1.69.54.56,1.59ZM186.04,132.7c-.15-.02-.91-.22-1.16-.33-.08-.45.36-.2,1.16.33ZM181.87,136.6c3.68,4.37,5.43,1.35,7.06,3.14l-4.85-.24.53,1.49-2.43-.36-1.19-2.24-2.98.2,3.86-1.99ZM178.75,135.07c.23.76-.23,1.31-1.17,1.43l1.17-1.43ZM177.35,125.2l-.76.77-.58-1.73,1.35.96ZM173.51,132.73c.91.71,1.16.84,2.41,1.17-.58.84-2.24,1.26-3.5.38l1.09-1.55ZM170.66,140.38c.24.51.36,1.35.69,1.42l2.01.44c-2.62,2.9-4.92,6.3-9.48,5.55l1.05-3.26c.8-2.49,3.19-4.4,5.73-4.16ZM169.52,114.71l.19,1.23-2.55-.18,2.36-1.05ZM163.69,125.99l2.59-.4c-.1.3-.56,1.63-.97,1.65l-2.73.17,1.11-1.42ZM162.27,128.89c.86,1.71,2.29,2.6,4.57,2.8-.97,1.15-3.36.78-4.29,1.58-2.05,1.78-3.65,4.44-4.61,6.95l-2.14,5.62c-.97,2.54-3.78,5.42-6.23,7.02.61-3.22,1.15-5.59.43-8.5-1.12-4.55,2.62-6.21,4.27-9.26-1.27.43-1.79.81-2.82,1.42,1.93-3.06,2.09-.62,3.24-3.2l1.56,1.87c.1.12.72.3,1.06.4l.93-2.41,1.91,1.03c.44.24,1.06-1.45.73-1.92l-1.97-2.89c1.15.36,2.38.42,3.36-.51ZM152.45,124.04c.56-1.28,2.19-.9,2.4.55-.41.15-1.92-.19-2.4-.55ZM159.43,111.87l.55,1.12-.92-.05-.25-.86c-.05-.17.55-.36.63-.21ZM153.49,112.65c.26-.18.48-.34.51-.24.07.2.19.53.21.6,0-.02-.02-.05-.04-.1-1.35.76-1.1.39-.69-.26ZM154.21,113.01s0,.02,0,0h0ZM152.4,116.17l-2.18,1.01-.04-2.36,2.22,1.35ZM154.23,117.41l.6,2.22c1.52.92,2.81-.3,4.84-.41-.8,1.38-1.49,2.42-2.4,3.69-.84-1.77-1.38-2.11-2.83-2.19l-1.3-.08c-.34-.02-.38-.95-.53-1.36l-2.64-.38c1.34-.79,2.73-1.28,4.27-1.48ZM150.75,124.74l2.64,1.63-2.79.85-1.29-1.1,1.44-1.38ZM143.73,116.3l1.69.77,1.1-1.82,2.01,2.47c-.51.79-1.52,1.7-2.28,2.19l-.74-1.64-2.25,1.91c-.33-1.28-.07-2.78.48-3.88ZM144.17,132.07c3.6.72-1.57,8.1-4.18,8.79,1.13-3.6,2.12-6.93,1.61-10.51l-.38-2.69,3.34-.5,1.99,1.57-2.97,1.47c-.21.1-.43.93-.43,1.16,0,.31.54.61,1.03.71ZM142.09,114.2l.82,2.09c-.29.82-.83,1.2-.95.26l.13-2.35ZM141.36,125.04c.16-.2.89-.24,1.1-.18l-1.59,1.25c.12-.4.32-.87.48-1.07ZM138.89,112.89c.73.9,1.28,2,1.67,3.15l-3.28-.36,1.61-2.8ZM139.25,126.03c.91,4.32.23,8.25-1.45,12.38l-.79-5.58c-.5-3.52-.55-2.66,2.25-6.8ZM140.92,144.48c4.75-4.19,4.87-6.46,9.53-10.25-.8,5.08-3.61,5.64-2.62,10.61.3,1.5.51,3.44-.09,4.84-1.19,2.78-2.7,5.5-4.88,7.58-1.81,1.73-4.32,2.67-6.56,3.98l-7.15,4.17c-.06-1.26.27-1.82.78-2.71,1.84-3.23,3.67-6.42,5.22-9.79,1.49-3.24,3.06-6.05,5.77-8.44ZM134.97,133.86l-.28,3.75-2.56-3.53,2.84-.22ZM130.96,113.62l-1.75.71-.04-2.12,1.78,1.41ZM124.36,119.47c1.79-.02,1.58,2.3,3.7,1.97.53-.08,1.41-1.36,1.07-1.77l-1.56-1.84c-.2-.24.34-1.03.64-1.08,1.71-.3,1.65,2.47,4.93,1.16l1.11,2.06-3.18,1.2c-1.74.66-3.86.84-5.83.99-.64-.53-1.07-1.71-.87-2.7ZM125.19,142.87c-1.37-1.71-2.29-3.69-1.83-5.64.89-.51,1.75-1.07,2.03-2.34l2.71-1.86c-.01,1.21-.71,1.88-1.64,2.66,1.01,3.09.35,4-1.27,7.18ZM96.06,154.83c-.18.23-1.29-.69-1.07-.87l1.58-1.25.51.78-1.02,1.33ZM79.29,185.84c.14,1.42-.34,1.42-.84.22l1.39-1.3c.52-.48,1.1-1.39,1.11-2.08.01-.8-.78-1.64-1.41-2.2.32-.98,1.73-1.93,2.65-1.48-.19.74-.86,2.16-.51,2.7l1.16,1.8c-1.38.23-2.54,1.1-3.54,2.35ZM84.54,190.32l-.33-.88c-.06-.17.38-.1,1.31-.08l-.98.95ZM91.51,192.19l-.69.75c-.2.22-.67-.97-.39-1.04.53-.14,1.25.11,1.08.29ZM95.15,187.62c-.29-.8.88-1.82,1.88-1.48l-1.88,1.48ZM162.53,202.99l-.62,2.6c-1.8,7.56-6.87,21.13-10.33,28.12l-5.08,10.25c-.94,1.91-2.65,3.97-5.12,3.13l3.65-6.58,3.18-5.76c1.36-2.45,2.53-4.93,3.7-7.49l4.13-9.12,2.65-6.11,3.03-7.84,1.96-6.4c.27,1.94-.73,3.42-1.15,5.2ZM108.04,160.84l1.07-1.49.47,1.29c.14.38-.71.94-1.22,1.37-.26.22.22.73.82,1.29.55.51-.01,2.07-.75,2.69l-2.29-5.34,1.9.19ZM105.46,152.53l-.45.53c-.13.15-.24-.35-.28-.58-.02-.14.82-.05.73.05ZM101.41,152.82l-.45,1.1c-.51,0-.22-.58.45-1.1ZM99.48,146.43c.03-.18,1.01.16.96.34l-.24.86c-.07.24-.96.03-.91-.22l.19-.98ZM97.59,147.9l.71,1.19c-.52-.03-.84-.55-.71-1.19ZM100.1,156.04l-1-.69c.34-.34.8,0,1,.69ZM102.38,174.33c-2.33-2.96-3.59-6.49-2.33-9.98.64,1.97.66,3.72,2.65,4.53l-.67-3.35c-.49-2.44-3.36-.34-.45-8.15l.58-1.54.79,3.57-1.72.55c-.43.14.23,1.47.47,1.76l1.54-1.51,1.86,4.29c1.04,2.41-.72,5.5-1.04,10.09l-.18,2.66c-.49-1.08-.83-2.08-1.5-2.93ZM102.67,187.04l-.14,1.06-1.11-1.13c.49-.05,1.28-.18,1.25.07ZM97.81,191.33l1.78.5.54-.13c.15-.03.1.79-.05.8-.63.03-1.74-.5-2.27-1.17ZM99.74,198.6l-.5,1.12c-.06.13-.74-.42-.62-.49l1.12-.63ZM103.95,223.45l7.86-15.03c1.78-3.41,3.68-6.68,5.65-9.84,2.26-3.63,5.41-1.34,10.49-1.41,10.12-.13,19.97-1.88,29.38-5.45l7.48-2.84c-.02,5.33-3.74,13.46-5.96,18.42l-2.7,6.05c-2.1,4.69-4.34,9.13-6.82,13.63l-3.59,6.5c-1.94,3.51-4.18,6.66-6.55,9.85l-1.6-.6-2.8.94c-.29-1.73-.58-4.33-2.31-5.1-1.5-.67-2.85,1.49-2.92,2.74l-.12,2.07c-1.92.09-2.8,2.04-2.64,3.59-2.15,2.14-1.24-4.95-7.07-3.18-.26-.54-.54-1.54-.56-2.18l8.49-6.87,5.36-4.7c3.1-2.72,8.58-8.91,11.33-12.27l3.64-4.46,3.08-3.78c1.05-1.29,1.9-2.48,2.52-4.11-1.25.92-2.13,1.76-3.11,2.81l-5.62,6.01-6.47,6.57-6.64,6.4-5.13,4.9c-2.76,2.63-6.21,4.58-9.36,6.55l-1.1-.78c-.22-.16-.93.49-1.12.72l-3.21,4.02c-.55.69-1.71,2.48-2.81,1.69-2.92-2.09-1.4-3.48-6.1-3.48-.82.7-1.32,2.16-1.72,3.21l-.33.86c-.66,1.71-1.37-4.46-3.21-4.02-.45.11-1.17.87-1.36,1.29l-.4.88c-.1.22-.64-.52-.66-.76l-.34-3.47c-.01-.14-.4-.71-.51-.63-.16.13-.47.45-.59.68l-1,1.89c-.63-.31-1.43-.97-1.82-1.54,3.83-2.64,11.09-12.17,12.96-15.75Z"/><path class="cls-19" d="M291.05,112.48c-.42.08-1.34.9-1.23,1.29.11.39.43,1.09.68,1.57l1.01,1.91c.23.44,1.29.63,2.16.76.76.11,1.52-.52,1.92-1.31l2.93,1.56c-2.68-.17-4.92.21-6.53,2.04-.44.5-.58,1.88-.22,2.39.33.47,1.36.69,2.08.79.48-.11.88-.28.87-.08l-.07,1.11c-1.11-.12-1.86.17-2.77.98l-2.27-1.56c-.32-.22-1.34-.39-1.65-.18-1.08.75-.84,2.06-1.2,2.07l-.97.03c-.61.02-1.3.59-1.58,1.39-.8,2.22-2.02.22-2.86,2.85-.53,1.69-3.37.19-3.68,2.77-.08.62.87,1.45,1.66,2.09-.42,1.42-3.73,2.18-3.25,3.1l.86,1.68-1.56.94c-.37.22-.58,1.25-.41,1.65.14.33.84.92,1.21.95l2.75.27c-.07.38-.16,1.54.16,1.71,1.01.53,3.44,0,4.57-.65,2.7,2.49,6.21,1.3,7.21,2.42,1.52,1.71,3.17,3.66,4.59,5.43,1.13,1.42,2.02,3.1,3.3,4.34,3.52,3.39,8.22,3.46,10.59,8.43l-8.24-2.41c-1.57-.46-3.46-1.3-4.44-2.68l-3.73-5.27c-.12.63.08,1.36.39,2l2.39,4.92c-3.57.21-6.19-1.99-9.03-3.69-5.78-3.45-3.14-3.06-8.01-7.32.94,2.15,1.96,3.59,3.16,5.52l-3.15-.89c.48.72,1.35,1.63,2.11,2l4.79,2.29c2.01.96,2.49,3.52,7.4,4.44l7.48,1.4c3.18.6,6.35,1.61,9.13,3.31,3.19,1.96,6.08,4.26,8.65,6.94,1.01,1.05,2.13,1.96,2.86,3.27l1.68,3.01c1.09,1.95,2.64,3.27,3.61,5.29.76,1.58,2.58,2.57,3.56,4.04,2.52,3.77,4.32,8.22,5.22,12.7l1.43,7.15c1.7,8.48,1.97,11.83,1.84,20.55-.05,3.5-.54,6.97-1.58,10.3-.8,2.55-5.88,1.9-6.15,5.27l-3.16-.6.21-2.96c1.76.08,3.07-.36,3.31-1.73.22-1.29.45-2.59.57-3.86l.79-8.09c.32-3.3.47-6.95-.14-10.15-.29-1.55-1.61-2.8-.44-4.58.34-.52-.08-1.97-.57-2.37l-3.19-2.57-.16-2.26c-.75-2.2-2.95-2.82-5.17-2.83-1.2,0-4.82-2.17-4.15-.74l1.35,2.84-1.21.51-1.28.55c-.29.13-.17,1.13-.07,1.44l.36,1.19-4.17.56c-.59.08-1.19,1.4-1.11,1.93l.66,4.35c.13.83,1.59,1.67,2.39,2.14l-1.88.33c-1.17.21-2.56.41-3.4-.06.11-.84.19-2.21-.26-2.61-1.49-.88-3.95-.58-5.55-.1-1.37.42-1.23-1.7-2.77-2.43-.45-.21-1.81.12-2.22.49l-2.72,2.48c-.57.52-2.56.06-3.09-.22l1.65-2.18c1.08-1.88-.61-7.77-2.51-6.76l-1.1.58c1.48-3.75-5.85-5.17-8.57-5.02l-3.72-2.06c-.3-.16-1.16-.22-1.52-.2l1.04,3.47c.06.21.15.98-.05,1.06l-.99.37c-.28.11-.92.5-.98.79-.05.22.04.75.12.98l.52,1.46-2.18,1.07c-.4.2-.99,1.35-.76,1.81l3.41,7.14c3.82,7.98,3.93,18.92,1.82,27.68h7.73s4.86.16,4.86.16l-3.92,1.1c3.63.85,9.64-.01,13.1-.25,5.18-.36,10.27-.25,15.25.04-5.01.76-14.07-.68-18.26.85.6.57,1.26.97,1.68.96l6.14-.06.88.78-1.77-.23c-3.53-.46-6.92-.13-10.61.78,4.19,1.13,8.07,1.37,12.19,1.67l5.78.42,6.76.42c3.28.2,6.31.33,9.68.77-2.26.5-4.46.43-6.89.52l-12.05.43-8.4.42c-.27.01-.92.48-1.17.74,1.48.31,2.56.47,3.96.53l6.84.3,11.23.19,13.65-.06c1.2,0,2.44.14,3.62.24l4.46.38-11.69.4-11.25.29c-1.43.04-2.95.18-4.38.32l-6.52.62c-1.8.17-3.46.19-5.17,1.32,3.59.46,6.66.58,10.06.76l8.45.43c1.53.08,2.88.22,4.27.39-5.4,2.01-12.71,1.13-18.43,2.61,1.92.64,3.51.66,5.34.73l6.21.25,13.41.15,6.83.31,13.29.12-4.44.42c-4.34.41-4.51.09-8.59.46l-5.86.53-4.01.36-5.21.4-5.73.39c-2.44.16-4.61.44-7.28,1.09,1.91.67,3.68.81,5.71.87l7.7.23,14.02.28,8.11.16c-.52.63-1.15.6-2.08.68l-14.84,1.31-8.1.71-.3.81c.98.22,1.89.47,2.75.52l5.65.33,4.81.23,8.02.3c1.42.05,2.94.25,4.44.41-3.62.34-7.12.8-10.88,1.29l-3.56.47c-1.51.2-2.75.35-4.13.68l5.71.61c.94.1,2.1.32,2.93.45l.25.74c.04.11.53.15.71.18l4.55.56c2.55.32,5.11.7,7.64,1.21l13.31,2.7,3.06-10.69c2.64-9.24,4.09-23.23,3.81-32.84l-1.7-3.09.73.17,2.26,1.33,1.12-2.81,4.3.53c.82.1,2.2-1.33,1.88-1.89l-2.86-.93c-.34-.11-.68-1.3-.54-1.7,1.27-3.51,5.63-2.64,6.7-4.43.52-.87-.03-2.41-.65-2.89-1.9-1.47-4.27.11-3.46-.92.09-.11.44-.56.56-.6l2.36-.91c.63-.24.79-2.06.54-2.68-.8-2-5.59-2.03-5.28-4.8l.26-2.33-2.41.2-.3-2.74c-.21-1.94-.65-3.65-1.46-5.39-.35-.02-.65-.04-.72-.05-.09,1.93-.19,3.52-.68,4.91-.12.34-1.08,1.1-1.38.91l-.82-.53c.06-.74.1-1.36-.06-1.72-.13-.28-1.15-.72-1.48-.66l-4.68.86-.31,2c-.2,1.27-1.69-1.62-2.66-2.09-.86-.42-1.85.78-2.07,1.82l-3.23-1.57c-2.04-.99-2,2.82-2.87,3.18-.83.34-3.86-.42-3.68.56.57,2.98.93.78.73,3.19l-.84-.19c-1.79-7.25-2.64-15.78-1.46-23.21.29-1.85,1.32-3.65,2.77-4.78l6.11-4.77c6.13-4.78,1.03-9.75,10.84-15.74,2.26-1.38,3.54,2.37,5.14,1.83,2.75-1.85,2.72,1.1,3.81-2.09l2.28,1.28c.3.16,1.16.2,1.3-.1.7-1.45-.73-2.48-1.6-3.48l1.03-.72c-1.24-2.64-3.82-2.55-6.61-2.56l.47,2.12-3.16.43c-1.21.16-2.26.36-3.53.6l.55-2.11,2.45,1.09c.36.16,1.32-.4,1.48-.77.13-.31.04-1.18-.19-1.44l-2.4-2.76c-.64-.26-1.57-.42-1.52-.81l.25-2.01,3.01,1.89c.57.36.7,1.91.87,2.78,3.13.27,1.41.04,4.98-1.34.43-.17,1.01-.47.95-.77-.44-2.24-5.21-1.93-6.46-3.45l1.52-1.47c.19-.82-.56-2.24-1.51-2.65l-4.82-2.07.98-.92c.19-.18-.18-.98-.32-1.21-1.65-2.69-5.22-.28-5.06-1.18l.18-1.01c.1-.54-.24-1.53-.67-1.78l-2.3-1.38c-1.47-.88-3.27-.44-4.12,1.26-.27.54.31,2.15,1,2,.5-.1,1.01-.37,2.04-.85l.38,1.75-.69.63c-1.75-1.35-4.26-.88-5.27.15l-.18.51c-.05-1.73-1.48-3.84-2.71-3.93-1.04-.07-2.66,2.55-2.33,4.15-.09.3-.31.75-.28.51-1.44-.55-2.56-.72-3.47-.23-.31.49-.5,1.23-.82,1.22l-1.61-.08,3.85-5.14c1.19-1.58,2.47-3.06,3.84-4.44l.75,2.17c.21.59,1.72.74,2.27.43.49-.27,1-1.48.93-2.06l-.24-1.83,3.21,1.74c.7.38,2.39-.19,2.99-.91.48-.56.6-1.65.47-2.6l-2.23.18-3.02-2.12,1.13-.91.99,1.99,2.7-.11,1-2.44c1.02,2.19,4.38,2.36,4.96,1.38.09-.76-.64-2.14-.98-2.7-.84-1.37,1.09-.49.97-2.28l-.14-2.16c-1.77-3.71-5.77-1.92-5.73-3.49.03-1.3-1.42-3.16-3.36-2.68-.4.1-1.48.11-1.77.09l-.6-2.1-3.06-.87c.39-.73.42-2.47-.29-2.85l-2.16-1.17c.05-.07.23-.31.4-.55l.66-1.12c.15-.26-.39-1-.65-1.2-1.06-.79-3.35-1.11-4.22.1-.53.74-1.02,1.78-1.38,2.46-.23-1.2-.51-2.78-.86-3.68-.2-.51-1.96-.36-2.54-.33-4.2.21-2.23-.59-5.34-.72-.39-.02-.2,1.93-.5,1.88l-.69-.12c-.32-.25-.74-.58-.51-.4,2.12-1.71.04-1.33,2.99-2.67.47-.21,1.02-.55,1.06-.88.03-.26-.3-1.05-.54-1.15l-2.2-.93c.07-.09.17-.22.32-.42-.06-.22-.31-.8-.67-1.46-.92-1.71-3.24,2.05-3.2.79l-.12-2.54c-1.29-.27-3.46-.22-4.44.32-.49.27-.54,1.58-.72,2.47l-.24-.35c-.28-.38-.91-.89-1.32-.82-1.59.26.69,2.25-1.56,3.25l-1.39-2.41c-.34-.16-1.42.38-1.79.6l-3.58,2.1,2.23,2.08-5.9-.24-1.04-1.68c-.2-.32-1.23-.93-1.53-.69-.3.24-.72.63-1.24,1.11-.48-.33-1.8-1.35-2.53-1.44-2.32-.29-3.66,2.02-3.84,4-1.48-.62-3.31-1.18-4.22-.14-.3.35-.81,1.4-1.21,1.34-1.35-.22-3.66-.48-4.91-.24ZM288.1,134.81s0-.06,0-.09c.09.96.1.99,0,.09ZM283.94,131.48c.25,0,.45.2.45.45s-.2.45-.45.45-.45-.2-.45-.45.2-.45.45-.45ZM282.61,140.37l1.43-2.03,3.22,1.34-4.65.69ZM287.39,144.35l1.64-.96c-.34-.63-.51-.92-.46-1.44l1.96,2.91-3.14-.51ZM289.92,137.97c-.22-.5-.37-1.35-.17-1.7l.9-1.55c.21.97.05,1.95-.73,3.24ZM317.22,246.14l-7.42-.55.03-3.84c6.44,2.85,4.44.29,6.35.54l7.07.92.06,3.33-6.09-.4ZM368.63,239.86l1.24.33-1.6,2.6.36-2.93ZM367.56,243.08l-.39,4.6c-.67-.03-1.66-.42-1.89-.87-.54-1.04.22-4,2.28-3.74ZM361.48,240.84c-.25,1.28-.64,2.77-1.16,4.37-1.99-1.45-3.06-2.81-3.95-4.73l5.11.37ZM364.09,131.17l-.7.54-1.24-.98,1.95.44ZM350.01,131.07l.29-1.93,1.3,2.92c-.13.16-.91.47-1.24.45-.4-.02-.54-1.15-.35-1.45ZM351.99,133.62l.87,2.84-3.15-.45c.59-.89,1.26-1.62,2.28-2.39ZM349.87,139.94c.05-.17.71.05.66.22l-.27.86-.68-.04.3-1.04ZM346.05,122.25c.17-.09.68-.18.86-.21.24-.05.03,1.13-.2,1.22-.41.16-1.49-.14-1.9-.34l1.24-.67ZM344.57,141.71l2.25-4.13-.55,3.07,2.58-2.67c.72,1.43-4.05,6.32-5.53,6.97.25-1.43.67-2.17,1.25-3.24ZM296.26,134.88c.2-.22.4-.33,1.2-.77l-.13,1.56c-.93-.48-1.21-.64-1.07-.8ZM293.71,131.42c.12-.54,1.1-1.14,1.8-1.48.09.3.2,1.29.01,1.5l-.88,1c-.19.22-.99-.75-.93-1.03ZM308.41,146.43c1.14-5.74-.84-5.66,1.89-7.22,2.36,5.45,1.97,5.84.84,11.09l-.52,2.41-1.54-2.27c-.73-1.08-.94-2.66-.67-4.01ZM308.12,137.98c-1.63-1-1.59-2.74-.55-4.16l.57-.78c.83-1.14,1.73,2.25-.02,4.94ZM336.5,176.01c-3.42-6.55-3.64-13.84.11-19.59l1.4,1.32c.63.59,2.54-1.14,2.88-.43l.37.79c-1.58.37-3.35.88-4.47,1.88-.35.31-.3,1.69.12,1.87l1.92.83-2.28.72c-.49.16-1.43,1.21-1.33,1.81.24,1.38,1.89,2.7,3.77,2.45.14,2.9-.3,5.92-2.49,8.34ZM337.88,264.35c-.34,0-1.49.38-1.87.35l-3.99-.23,5.31-.49c3.11-.29,6.23-.19,9.21.12l-8.66.25ZM347.49,173.64c-.85-2.03-1.27-3.81-1.47-5.99l2.23,1.33c-1.05,1.57,1.29,2.73-.76,4.66ZM347.96,163.23c-.1.28-1.28.63-1.32.61l.66-2.64.27-1.17c.07-.32.9.25,1.13.48-.15.59-.53,2.11-.74,2.71ZM357.2,161.23l1.85-1.85-.13,1.84c-.02.35.47,1.2.8,1.33,1.25.5,1.64-1.61,2.69-.93.44.28,1.09.75,1.37.58l1.44-.89c.78,1.52-2.04,8.29-4.69,9.44-.22-1.5,2.21-5.7.73-6.25l-2.13,4.68-1.39-3.77c-.42-1.14-1.47-3.26-.54-4.19ZM354.85,152.66c.24.67-1.11.65-1.19.04-.03-.26,1.1-.28,1.19-.04ZM354.24,161.19l.08-1.62c.04.19.01.65-.08,1.62ZM355.51,168.81c.8-1.67-2-1.87-1.27-3.03.29-.45.76-1.25,1.15-1.89,1.79,4.52,2.6,6.96,1.62,11.82-.91,4.56-3.28,6.78-7.38,8.94l.52-6.64c.05-.6-.13-2.1.11-2.71l2.13-5.39c.53-1.34,2.37.47,3.12-1.1ZM345.91,155.08l1.39,1.2c.34.3,1.61-.04,1.85-.43l1.3-2.11,1.8,1.76-2.84,1.71.73,1.47.36.72c.07.13-.43.31-.64.39.1-1.87-2.97-3.68-4.59-3.23l.64-1.48ZM344.38,166.93c.33,3.52,1.1,7.32,2.35,10.85,2.28,6.47-2.57,10.18-3.06,14.59l-.96,8.61-2.76-7.4c-4.65-12.47,1.02-15.93,1.43-21.11l.33-4.16,2.67-1.37ZM339.24,122.24l.88.25-1.68,1.93.8-2.18ZM339.77,125.08c.66-.53,1.96-.46,2.82.29-1.78,1.12-3.32,1.68-5.52,1.87l2.7-2.16ZM338.16,132.34l-1.14.7-.45-2.32,1.21-.39.39,2.01ZM335.25,124.27l1.61,1.4-.81,2.1-1.85-2.92,1.05-.58ZM335.14,130.32l-1.5-.62c.66-.33,1.27-.18,1.5.62ZM332.32,139.45l2.97.03c-1.25,3.93-2.36,3.2-1.91,8.51l1.43-2.67c1.86,2.79.6,2.74,1.39,5.78.06.22.75-.44.84-.65,1.6-3.73-3.06-4.68-.91-8.93,1.64-3.24,1.11-4.42,2.85-7.04l-.6,4.74c-.07.55.38,1.74.86,2.14.45.38,1.34.48,2.05.43l-.52,1.55c-1.54,4.65-1.25,4.41-3.95,8.17-2.7,3.77-4.05,5.78-5.89,10.16-1.09-3.03-1.59-5.79-1.84-8.86-.76-9.41.67-5.39,3.23-13.34ZM330.26,117.99s.19.41.23.55c.05.22-.58.63-.76.53l-.7-.42c-.41-.25,1.23-.72,1.24-.66ZM328.83,129.68l-.46.53c-.13.15-.21-.29-.27-.6-.02-.12.82-.02.73.08ZM327.07,132.97c.78-.17,2.07-.28,2.53-.26l-1.34,1.58c-.63.74,2.15,1.88,2.15,1.95-.03,1.44-.89,4.97-2.91,6.34-.77-3.28-.81-6.27-.43-9.6ZM327.8,169.96c1.11,4.13,2.8,7.85,2.49,12.25-2.21-2.28-4.08-4.28-5.96-6.46l-5.8-6.71c-1.73-2-3.35-6.86-4.32-9.69-2.31-6.72,1.23-11.27-.24-15.3l-1.72-4.71c-.14-.4.03-1.32.23-1.8,1.71,1.18,2.74,2.74,3.23,4.76,2.22,9.15,8.54,7.51,9.38,15.87.2,1.97.62,4.03,1.15,5.97l1.56,5.81ZM313.36,130.59l1.64-2.03.72,1.63c.09.21.29.92.09.96l-1.1.25-1.35-.81ZM324.39,111.11l-.46,1.1c-.51,0-.21-.58.46-1.1ZM325.31,119.93l-1.25,3.26c-.23-.81-.42-1.64-.43-2.2-.01-.47.87-.84,1.68-1.07ZM326.11,127.83l-.54,2.54-1.95-2,2.48-.55ZM321.18,113.47c.15.02,1.01.64,1.17.84.17.21-1.05.53-1.12.26-.06-.27-.11-.88-.05-1.09ZM319.78,119.29l.78-.54c.84-.59,2.13,4.61,1.8,5.56-1.21.1-.44-2.09-1.78-2.67-.35-.15-1.01.59-.99,1.04l-.51.79c-1.38-1.63-.66-3.24.7-4.18ZM318.33,139.05c.15-.73,1.17-2.05,1.71-2.45.62,0,2.17-.16,2.27-.76.13-.78-.86-2.06-1.26-2.47l2.72-.87c.29-.09.9.58.88.92l-.3,4.52c-.16,2.45-.26,4.81-.21,7.22l.07,4.34c-3.3-2.62-6.8-6.02-5.88-10.44ZM317.62,113.63l-.21.7c-.05.17-.38-.18-.88-.65.74-.12,1.14-.22,1.09-.05ZM315.6,118.01c.4,0,1.32.12,1.5.2l-.07,3.52-2.18-2.31c-.29-.31.36-1.41.75-1.41ZM311.7,123.08c.8,0,.54-1.9.06-2.33l-1.51-1.37c3.05-.69,4.18,1.68,5.6,3.1-.96.02-1.7.02-2.14.11-.51.11-.82,1.44-1.01,2.02-.5-.7-1.78-1.25-2.84-1-.75.17-1.39,1.27-1.95,2.32-.95-1.12-1.74-2.58-2.01-4.02,2.15.6,3.61,1.15,5.81,1.16ZM305.99,114.41l1.29.91-1.94.97.65-1.88ZM302.85,134.59c.29-.05,1.11-.69,1.01-.94l-.54-1.31,2.12-.15c-.48,2.54-2.7,2.41-2.7,4.6,0,.56,1.31,1.03,1.83.97l1.71-.2.93,4.05c.39,1.7.15,3.39-.59,5.12-.73-.36-1.54-1.61-1.45-2.42l.96-.84c.15-.13.06-.76-.08-.94l-2.93-3.83c-.71-.93-1.95-1.88-2.84-2.69l-.54-2.44c1.26.65,2.22,1.16,3.09,1.02ZM301.5,140.97l1.89-.06.51,3.83c.12.92,1.43,2.43,1.83,3.37,2.1,4.9,1.4,2.07,3.03,6.05l-1.48.44c3.43,1.83,2.98,2.38,4.05,6.59l-2-1.41c-6.18-3.13-6.76-4.8-7.47-11.42-.21-1.94-1.54-4.19-2.26-5.7l1.89-1.69ZM298.39,143.11c-.09,1.71,1.49,3.87,1.49,5.68v5.73c-2.23-2.47-4.11-4.57-6.1-7.16-1.04-1.34-1.68-3.37-2.63-5.19,2.09-.86,1.68,1.58,3.01,2.64.22.17.82-.59.85-.87l.19-1.79,1.75.06-.3-1.25,1.64-2.65c.83,1.4.2,3.12.11,4.8Z"/><path class="cls-26" d="M374.45,207.88s0,0,0,0c-.03,0-.02,0,0,0Z"/><path class="cls-43" d="M221.23,138.17c6.91,3.57,15.62,2.94,22.24-1.35,3.01-1.95,6.23-5.08,7.24-8.87-7.27,5.46-16.19,6.22-22.88,0-3.05-2.83-4.86-6.35-5.12-10.57-.5-8.2,2.94-14.42,10.92-16.94l3.91-1.23c-12.48-5.25-26.35,4.34-27.82,16.99-1.08,9.26,3.29,17.71,11.51,21.95Z"/><path class="cls-38" d="M66.92,245.32c-.83.32-.29,9.24-.19,10.43,1.1,14.07,3.29,26.31,8.17,39.56,1.79-.55,3.27-1.08,4.68-1.7l-2.62-8.47-2.31-8.87c-2.61-10.03-3.4-19.99-3.24-30.45l-4.48-.5Z"/><path class="cls-32" d="M377.57,256.25c-.38,6.84-1.6,13.54-3.26,20.17l-3.04,12.15,4.58,1.01,2.47-8.84c2.56-9.15,3.87-18.48,4.07-28.01l.14-6.57-4.43.45-.53,9.62Z"/><path class="cls-39" d="M186.16,90.16l5.47,7.55c.2.27.91.46,1.15.52.24.06.31-1.16.15-1.39l-7.49-11.14-5.51-7.81c-.18-.25-.85-.52-1.08-.37s-.37,1.04-.2,1.3c2.28,3.72,4.91,7.74,7.52,11.34Z"/><path class="cls-10" d="M224.78,90.63c.04-.14.52-.81.54-1.09.22-4.16.35-10.09.23-14.57l-.29-10.45c0-.27-.47-.87-.78-1.02-.18,1.58-.3,2.78-.34,4.25l-.28,10.09c.02-.88-.27,17.22.92,12.79Z"/><path class="cls-41" d="M256.24,98.47c.22.17.88-.1,1.07-.35l2.5-3.36,6.74-9.05,3.84-5.54c.38-.55.39-1.41-.12-2.23-2.43,2.8-4.27,5.14-6.28,8.02l-7.84,11.26c-.2.29-.14,1.08.08,1.25Z"/><path class="cls-11" d="M211.85,90.78c.1.31.66.61.88.7.15.06.45-.97.41-1.14l-1.65-7.47c-1.02-4.63-2.6-10.11-4.19-14.01-.11-.26-.58-.81-.61-.67-.02.14-.4.83-.35,1.08,1.81,8.9,2.59,12.64,5.51,21.51Z"/><path class="cls-2" d="M264.64,102.18c-.18.18-.22,1.19.03,1.15.19-.03.89-.11,1.03-.24l2.98-2.8,5.16-4.94c1.09-1.04,2.11-2.18,3.13-3.3,2.08-2.3,4.93-3.86,5.85-7.23-1.41.87-2.76,1.82-3.82,2.89l-11.41,11.48-2.96,3Z"/><path class="cls-33" d="M188.06,159.45c-1.94,4.54-1.27,3.57-5.72,5.89l2.52.87c.85.29,1.92,1.44,2.32,2.3l.96,2.05c1.47-4.51,2.33-4.03,5.62-5.35l-2.94-1.27c-1.59-.68-2.08-2.78-2.76-4.49Z"/><path class="cls-1" d="M259.67,161.16c1.91-4.33,1.27-4.14,5.86-5.72l-3.33-1.61c-1.43-.69-1.97-2.87-2.54-4.26-.43,1.75-1.05,3.64-2.53,4.31l-3.27,1.48c4.65,1.59,4.55,1.59,5.82,5.8Z"/><path class="cls-50" d="M195.62,81.55l5.55,11.65c.1.21,1.02.64,1.09.46.07-.18.32-.92.13-1.34l-8.67-19.16c-.24-.52-.92-.75-1.41-.74.26,1.3.43,2.18.81,3.1l2.5,6.04Z"/><path class="cls-36" d="M247.13,93.9c.11-.12.76-.48.86-.7l4.63-9.55c1.05-2.16,1.82-3.81,2.58-5.72l1.88-4.71-1.16-.23-5.27,10.61-4.09,9.19c-.14.31.39,1.29.56,1.12Z"/><path class="cls-54" d="M236.66,91.84c.17-.17.64-.71.74-1.05l2.77-9.56c1.03-3.56,1.94-8.14,2.64-11.73.05-.25-.56-1.13-.66-.94-1.26,2.59-3.5,11.51-4.35,14.85l-1.78,7.02c-.1.39.42,1.63.65,1.41Z"/><path class="cls-42" d="M183.71,102.63c.25.24,1.06.37,1.6.37-.59-1.01-1.09-1.79-1.84-2.54l-10.23-10.2c-1-.99-2.06-2.01-3.13-2.92l-3.97-3.38c.09.94.4,1.89.93,2.41l16.64,16.24Z"/><path class="cls-35" d="M273.16,111.46c1.11-.28,1.9-.59,2.72-1.18l8.54-6.18,3.5-2.62,5.17-4.31c-.96-.14-1.97-.02-2.64.48l-16.59,12.34c-.35.26-.61,1.03-.69,1.48Z"/><path class="cls-45" d="M169.64,210.87c-.11-.15-.51-.66-.58-.49-.91,1.93.49,4.79,1.45,7.23.83,2.1,1.56,3.92,2.65,5.79l1.92,3.3c.84,1.45,1.75,3.09,3.55,3.58-2.61-5.13-5.7-9.52-7.44-14.78l-1.53-4.62Z"/><path class="cls-28" d="M252.1,106.98c-.79,1.74-2.13,2.84-3.79,3.42,1.7.87,2.88,2.05,3.78,3.37,1-1.77,2.29-2.67,3.85-3.32-1.84-.63-2.98-1.75-3.84-3.47Z"/><path class="cls-52" d="M205.17,151.85c.61-1.46,1.8-2.65,3.31-3.24-1.2-.6-2.43-1.81-3.15-3.06-.77,1.1-1.92,2.2-3.18,3.02,1.19.71,2.27,1.86,3.01,3.29Z"/><path class="cls-29" d="M157.96,98.87c.61-1.46,1.8-2.65,3.31-3.24-1.2-.6-2.43-1.81-3.15-3.06-.77,1.1-1.92,2.2-3.18,3.02,1.19.71,2.27,1.86,3.01,3.29Z"/><path class="cls-9" d="M264.12,126c-.85,1.07-2.05,2.23-2.9,2.88,1.01.9,2.13,2.04,2.91,2.92.85-1.38,1.96-2.35,3.3-2.86-1.22-.57-2.56-1.81-3.3-2.94Z"/><polygon class="cls-18" points="307.75 96.55 305.61 94.55 303.51 96.21 305.5 98.71 307.75 96.55"/><polygon class="cls-13" points="277.27 183.69 275.62 181.6 273.53 183.53 275.51 185.54 277.27 183.69"/><path class="cls-3" d="M367.57,174.45c-.02.33.86.95,1.2,1.01.34.06,1.3-.78,1.32-1.14.03-.74-.36-2.12-.75-3.06-.9.49-1.73,2.67-1.76,3.19Z"/><path class="cls-34" d="M92.88,165.92c-.17-.27-1.02-.72-1.14-.47l-.48.98,1.41,3.73c.94-1.56.8-3.31.22-4.24Z"/><path class="cls-21" d="M266.24,173.6c.07-.27-.67-.98-.93-.87-.35.15-.87.56-1.42,1l1.54,1.53c.5-.91.73-1.31.81-1.65Z"/><path class="cls-53" d="M196.04,115.83l-.92,1.04c-.23.26.59.95,1.09,1.25.36.21,1.19-.88,1.08-1.28-.09-.33-1.02-1.27-1.25-1.01Z"/><path class="cls-48" d="M301.53,177.96c.28-.4-.87-1.01-1.23-.81-.27.15-.74.74-.53.97l.77.83c.15.16.72-.6.99-.99Z"/><path class="cls-30" d="M166.53,166.06l.56,1.8c.6-.9.91-1.36.66-1.44l-1.22-.36Z"/><circle class="cls-25" cx="229" cy="148.85" r=".45"/><path class="cls-20" d="M380.53,304.13c3.04,1.29,5.74,2.12,8.95,2.6-.05-.62-9.07-3.52-8.95-2.6Z"/><path class="cls-44" d="M115.26,364.05c1.46.93,2.95.6,4.29.14.27-1.51-3.96-.64-4.29-.14Z"/><path class="cls-14" d="M271.68,279.44c1.64-.5,2.19-1.46,2.58-2.64-1.21.66-2.28,1.57-2.58,2.64Z"/><path class="cls-27" d="M188.21,280.71l-2.15-2.07-.81.24c-.17.05.24.56.32.66l2.63,1.17Z"/><path class="cls-15" d="M111.01,223.9l3.93-2.36c3.35-2.01,6.31-4.13,9.24-6.97-.59-.42-1.33-.43-1.82-.15-2.76,1.59-5.25,3.08-8.04,4.44-2.71,1.32-9.46,4.55-10.6,7.9,2.91.49,4.87-1.42,7.29-2.87Z"/><path class="cls-12" d="M118.01,213.54c5.13-2.41,11.55-5.45,15.28-9.79-1.87.42-3.21,1.28-4.75,2.1l-5.08,2.73c-3.35,1.8-7.46,3.45-10.95,4.83-.24.1-.6.67-.66.89-.54,1.84,5.05-.24,6.16-.76Z"/><path class="cls-49" d="M111.76,224.42c-1.08.36-1.77.64-2.76,1.48,1.33,2.32,8.54-1.73,9.99-2.56,3.97-2.27,7.77-4.8,9.96-8.91l-6.35,4.44c-3.16,2.21-7.14,4.31-10.83,5.56Z"/><path class="cls-5" d="M128.67,203.46c-2.38.26-4.28.99-6.47,2.14-.05,1.78,6.4-1.69,6.47-2.14Z"/><path class="cls-8" d="M144.31,128.46s.01-.02,0,0h0Z"/><path class="cls-22" d="M144.3,128.47s-.12.15-.28.36c-.48.08-.7.12-.74.12.05,0,.33-.06.74-.12.11-.14.24-.31.28-.36Z"/><path class="cls-46" d="M144.3,128.47s0,0,0,0c0,0,0,0,0,0Z"/><path class="cls-6" d="M143.28,128.96s0,0,0,0h0Z"/><path class="cls-17" d="M248.91,294.34c-1.19-.87-2.54-1.36-4-1.62-.19-.04-.55-.17-.73-.17l-1.07.02c-.67.28-1.97.34-2.23,1.36-.1.41-.14.8-.17,1.22-.17,2.75-.76,4.62-1,7.26l-.48,5.15c-.24,2.53-.29,5-.3,7.54,0,.89-.07,1.67-.22,2.6l-2.02.07-6.85.16-.03-2.59c0-.58.01-1.16.07-1.76l.68-7.63.52-6.06c.04-.43-.01-.88-.22-1.24-1.39-2.39-4.25-3-6.86-2.83-1.58.11-2.93,1.09-2.97,2.84l-.2,7.04-.41,12.21c0,.26-.48.72-.74.76-1.15.17-2.2.75-2.9,1.68-.5.66-.72,1.39-.57,2.23.22,1.29,1.4,1.4,2.52,1.37l1.31-.03c.15,0,.31.18.31.36l-.08,8.79c0,.66.16,1.27.57,1.79,1.41,1.84,4.31,2.39,6.54,2.14,1.28-.14,2.55-1.13,2.56-2.5l.03-5.1v-6.05c0-.2.19-.28.39-.29l7.28-.51c.29-.02.75.46.73.72l-.52,7.8c-.02.3.04.66.15.91.48,1.11,1.35,1.93,2.45,2.4,1.73.73,4.16,1.15,5.89.37.79-.36,1.32-1.06,1.34-1.96l.17-9.23.09-2.59.28-6.31.41-5.79c.26-3.63.92-7.13,1.67-10.68.34-1.62-.07-2.85-1.39-3.81Z"/><path class="cls-47" d="M113.85,337.21l-3.1-7.68,2.09-1.03c.77-.38,1-1.93.72-2.6-.31-.75-1.15-1.21-1.92-1.22l-2.96-.05-2.75-6.24c-1.24-2.81-2.54-5.48-3.99-8.18-.82-1.54-2.05-2.76-3.66-3.43-2.34-.97-4.94-.86-7.05.56-.89.6-1.4,1.44-1.71,2.46-.5,1.64-.83,3.27-1.01,5-.52,4.86-.27,9.92.07,14.73.01.14-.15.34-.23.38l-1.84.91c-.63.32-1.27.96-1.47,1.66-.26.94.47,1.88,1.33,2.15,1.33.43,1.64.16,2.62.56l1.22,8.64c.12.85.65,1.74,1.48,2,2.31.72,4.76.61,7.06-.09,1.27-.39,2.33-1.8,1.92-3.22-.89-3.68-1.56-7.33-1.97-11.16,1.31-.45,2.58-.78,3.94-1.02l5.74,15.51c.86,1.92,1.51,2.7,3.56,3.15.15.03.34.11.43.17l2.25-.03c.09-.06.28-.15.42-.19,1.21-.34,2.7-.92,3.2-2.13.64-1.55-.92-2.26-1.29-2.97-1.13-2.19-2.17-4.34-3.1-6.64ZM98.43,326.65l-.28-3.27c-.13-1.52-.21-2.96,0-4.6l3.04,6.92c-.85.45-1.67.71-2.77.96Z"/><path class="cls-23" d="M370.3,307.64c-1.09-1.35-2.41-2.43-3.99-3.2-6.97-3.36-16.76-2.55-21.11,4.45-2.56,4.12-.6,8.64,2.71,11.59,2.57,2.29,5.8,6.21,5.22,9.9-.57,3.61-4.25,5.55-7.61,4.68-.55-.14-1.06-.5-1.49-.85l-1.35-1.11c-1.36-1.12-2.73-1.61-4.39-.71-.89.48-1.46,1.34-1.46,2.4,0,.78.29,1.58.83,2.21,2.5,2.88,6.03,4.69,9.83,5.02.73.06,1.38.06,2.09-.02,2.97-.37,5.74-1.49,8.16-3.24,1.04-.75,1.97-1.51,2.84-2.45,2.21-2.4,3.27-6.09,2.61-9.27-.19-.94-.45-1.83-.84-2.71-1.36-3.05-3.73-5.75-6.26-7.88-.82-.69-1.49-1.48-1.82-2.51-.83-2.54,1.2-4.74,3.52-5.42,2.5-.76,4.84-.32,6.27,2.02,1.63,1.06,4.01,1.47,5.78.47.91-.63.81-.76,1.15-1.57v-.29c-.31-.48-.11-.76-.7-1.49Z"/><path class="cls-37" d="M308.15,299.72c-1.27-.85-2.72-1.35-4.26-1.45-1.73-.12-3.1.69-3.41,2.44l-1.33,7.46c-.45,2.52-.61,4.07-1.52,6.52-.23.62-.61,1.13-1.06,1.6l-2.91,3.05-4.44,4.65c-.27.28-3.84,3.81-3.93,3.54-.01-.03-.06-.15-.06-.19-.62-3.45-.31-7.07.37-10.51,1.2-6.08,3.56-12.41,6.35-17.92.26-.51.4-1.11.25-1.65-.13-.48-.58-.86-1-1.09-1.69-.93-4.5-.76-6.3-.18-1,.32-1.9,1.01-2.41,1.95-2.33,4.26-3.9,8.97-5.37,13.55-.02.06-.12.18-.13.15-.21-.42-.25-.98-.25-1.5.03-3.59-.09-6.22-1.21-9.68-.85-2.62-2.93-4.48-5.54-5.27-5.44-1.63-11.79-.52-15.18,4.38-.9,1.3-1.64,2.61-2.25,4.07-1.97,4.69-3.31,10.01-3.29,15.13.01,3.76.58,7.49,2.68,10.65,1.11,1.67,2.52,3.02,4.26,4,2.68,1.51,6.04,1.48,8.94.65,2.34-.66,4.34-2.01,5.82-3.94.95-1.24,1.73-2.53,2.34-3.97l1.83-4.3c.2.63.29,1.24.36,1.88l.31,2.66c.35,2.93,2.39,6.42,5.31,7.63,1.85.77,3.89.7,5.74-.04,2.63-1.05,4.35-2.87,6.34-4.7l1.64-1.51-.03,2.25c-.02,1.67,0,3.55,1.61,4.62,1.85,1.23,4.16,1.61,6.23.7,1.11-.49,1.23-1.6,1.24-2.69.02-1.29.17-2.46.42-3.74l2.61-13.02,2.7-13.88c.19-.95-.76-1.85-1.47-2.33ZM268.36,310.2l-.51,5.04c-.22,2.16-.64,4.22-1.23,6.31-.7,2.48-1.73,4.97-3.46,6.88-.35.39-.79.64-1.27.61-.5-.03-1.04-.25-1.29-.74-1.11-2.19-1.35-5.25-1.3-7.72.1-4.23.83-8.34,2.17-12.34.94-2.82,2.83-6.97,5.4-8.6,2.43.33,1.67,8.8,1.49,10.57Z"/><path class="cls-31" d="M214.51,308.36c.75-1.46,1.28-2.98,1.33-4.64.09-2.91-1.34-5.53-3.8-7.03-.98-.6-1.98-1.02-3.09-1.37-3.93-1.24-8.26-1.05-12.29-.37-4.48.76-7.92,2.15-11.79,4.53-.09-1.19-.03-2.31-1.32-2.81-1.5-.58-2.77-.35-4.32-.07l-4.01.73c-1.78.32-3.48.79-5.18,1.42-.89.33-1.7.73-2.46,1.27-.54.37-.96.88-1.21,1.48-.37.88-.68,1.8-.7,2.81-.17,8.83.79,17.62,2.94,26.19.38,1.52,1.47,2.71,2.8,3.42,1.81.96,4.42,1.68,6.46,1.64,1.8-.03,3.7-.35,5.06-1.56.88-.78,1.5-1.79,1.64-2.97.11-.94-.36-1.81-1.2-2.23-1.74-.88-3.18-.54-4.86.54l-1.07-4.92c-.28-1.3-.39-2.56-.5-3.88l4.48-.95c1.08-.23,2.75-1.36,3.19-2.59.35-.98-.18-2.01-1.13-2.39-1.11-.44-2.56-.28-3.73-.05l-3.29.66-.51-6.2-.31-4.65c-.03-.4.5-1.07.85-1.2l2.14-.75,4.43-1.49c-.58,1.11-1.55,2.01-.76,3.19.78,1.16,2.02,1.94,3.43,2.08.7.07,1.45-.07,1.97-.54,1.28-1.15,2.36-2.21,3.99-3l.14,9.6c.01.74-.02,1.43-.06,2.16l-3.67,1.51c-.38.16-.72.51-.97.83-.4.53-.39,1.25.08,1.74,1.04,1.11,3.16,1.53,4.76,1.78l.89,11.33c.04.54.24,1.12.57,1.49.64.73,1.5,1.17,2.43,1.43,1.38.39,2.83.27,4.17-.23.56-.21,1-.62,1.24-1.16.96-2.13-.31-5.33.18-7.9l.2.1.73,1.25,2.55,4.32c.91,1.53,1.93,2.9,3.09,4.25,1.5,1.74,4.65,1.16,6.36-.35.62-.55.74-1.43.21-2.07-.46-.55-1.2-1.13-1.49-1.68l-7.72-14.47c3.7-1.97,7.18-4.59,9.14-8.23ZM206.22,305.26c-.9,2.45-2.8,4.47-5.06,5.81l.02-2.75.03-3.03c.01-1.14-.1-2.22-.29-3.34-.06-.38-.33-.76-.65-.97l-1.72-1.15c1.85-.65,7.57-1.59,8.06,1.09.27,1.48.13,2.93-.39,4.34Z"/><path class="cls-16" d="M165.61,298.05c-.4-.41-1.16-.84-1.79-.77l-12.25,1.27c-1.11.12-2.16.21-3.26.17-2.08-.07-3.89-1.09-5.92.64-.62.53-1.08.65-1.94.81l-3.84.7c-1.08.2-2.1.35-3.21.43-1.04-.62-2.22-.92-3.44-.68-1.97.39-3.87.85-5.8,1.45l-5.19,1.61h-3.52c-1.05,0-1.94.66-2.27,1.64-.59,1.73-4.92.44-4.51,3.49.22.53.53.99.98,1.34,1.27,1,2.83,1.38,4.46,1.12l1.61,8.63c.02.11.05.37-.03.41-.95.48-1.91.46-2.23,1.72-.24.97-.04,1.95.65,2.68.29.31.75.46,1.17.52l1.76.23,3.17,12.4c.22.84.8,2.25,1.45,2.75,1.8,1.39,4.65,1.87,6.85,1.45.68-.13,1.31-.37,1.84-.79.48-.38.84-.98.66-1.64-.23-.84-1.56-1.81-1.96-3.49l-3.01-12.6,2.43-.9c1.11-.41,1.64-1.8,1.41-2.92-.23-1.11-1.25-1.77-2.37-1.69l-2.64.41-1.59-10.22,7.73-3.12,1.53.65c.95.15,1.9.22,2.86.04l5.16-.96c.8-.15,1.55-.22,2.39-.29l.77,3.74c.66,3.2,1.19,6.32,1.66,9.57l2.03,13.98.65,4.63c.03.22.13.59.28.74.36.36.74.64,1.19.85,2.2,1.01,5.64,1.08,7.14-1.14.36-.54.61-1.22.5-1.89l-1.45-8.53-3.05-18.25-.72-4.89c.44-.18.88-.36,1.33-.4l5.51-.53,3.56-.4c.92-.1,2.73-.52,3.34-1.26.62-.74.65-1.97-.05-2.7Z"/><path class="cls-4" d="M330.36,326.91l-1.06-5.5c5.25-1.48,11.68-4.85,14.02-9.97,1.27-2.79,1.3-5.5-.65-7.98-.82-1.04-1.82-1.82-3-2.44-1.37-.72-2.77-1.24-4.28-1.63-4.29-1.08-9.4-1.05-13.75-.34-3.9.63-7.69,1.87-10.85,4.27-.59.45-.88,1.12-.66,1.87.66,2.24,3.34,3.87,5.4,2.53,1.17-.76,2.76-1.73,4.2-1.93l-3.2,11.19-4.12.97c-.49.12-.95.4-1.39.65-.62.36-.65,1.62.17,2.3,1.14.95,2.16,1.39,3.66,1.97l-2.48,11.24c-.44,2,1.67,3.41,3.29,3.88,1.97.58,4.69.42,5.34-1.97l1.83-6.79c.1-.17.17-.21.21,0l1.39,5.24c.51,1.92,1.17,3.7,1.95,5.52.19.45.63.82,1.05,1.06,1.46.82,3.73.85,5.24.1.42-.21.86-.5,1.09-.92.31-.56-.57-1.79-.7-2.23-1.08-3.68-1.98-7.32-2.71-11.08ZM327.13,314.81c.42-3.23,2.18-5.67,2.13-8.91,0-.29-.41-.71-.6-.9l-1.22-1.22c2.36-.48,4.59-.32,6.8.29.68.19,1.09.8,1.11,1.5.04,1.56-1.11,3.69-2.01,4.95-.2.28-.53.54-.78.79-1.54,1.55-3.18,2.9-5.44,3.51Z"/></g></g></svg>